<mxfile host="app.diagrams.net" agent="Mozilla/5.0 (Windows NT 10.0; Win64; x64) AppleWebKit/537.36 (KHTML, like Gecko) Chrome/141.0.0.0 Safari/537.36" version="28.2.7">
  <diagram name="Page-1" id="9fYTxXiU7RNW8sSX1FWZ">
    <mxGraphModel grid="0" page="1" gridSize="10" guides="1" tooltips="1" connect="1" arrows="1" fold="1" pageScale="1" pageWidth="850" pageHeight="1100" math="0" shadow="0">
      <root>
        <mxCell id="0" />
        <mxCell id="1" parent="0" />
        <mxCell id="tDPXz1M6_XOlwYq1AetY-186" value="" style="rounded=0;whiteSpace=wrap;html=1;" vertex="1" parent="1">
          <mxGeometry x="-1167" y="-1302" width="2744" height="2933" as="geometry" />
        </mxCell>
        <mxCell id="tDPXz1M6_XOlwYq1AetY-182" value="" style="verticalLabelPosition=bottom;verticalAlign=top;html=1;shape=mxgraph.basic.polygon;polyCoords=[[0,0],[0.98,0],[0.98,0.2],[0.87,0.2],[0.87,0.39],[0.69,0.39],[0.69,0.98],[0,0.98]];polyline=0;" vertex="1" parent="1">
          <mxGeometry x="-309" y="-775" width="1317" height="1228" as="geometry" />
        </mxCell>
        <mxCell id="tDPXz1M6_XOlwYq1AetY-180" value="" style="verticalLabelPosition=bottom;verticalAlign=top;html=1;shape=mxgraph.basic.polygon;polyCoords=[[0.2,0],[0.75,0],[0.75,0.54],[1,0.54],[1,1],[0,1],[0,0.39],[0.2,0.39]];polyline=0;" vertex="1" parent="1">
          <mxGeometry x="950" y="-1000" width="610" height="1550" as="geometry" />
        </mxCell>
        <mxCell id="tDPXz1M6_XOlwYq1AetY-178" value="" style="rounded=0;whiteSpace=wrap;html=1;" vertex="1" parent="1">
          <mxGeometry x="-1150" y="-1285" width="767.57" height="1170" as="geometry" />
        </mxCell>
        <mxCell id="tDPXz1M6_XOlwYq1AetY-176" value="" style="verticalLabelPosition=bottom;verticalAlign=top;html=1;shape=mxgraph.basic.polygon;polyCoords=[[0.3,0],[0.3,0.31],[1,0.31],[1,0.75],[1,1],[0,1],[0,0.75],[0,0]];polyline=0;" vertex="1" parent="1">
          <mxGeometry x="-850" y="150" width="1320" height="1450" as="geometry" />
        </mxCell>
        <mxCell id="odk8XBI7jBrf2oWu8FwO-6" style="edgeStyle=orthogonalEdgeStyle;rounded=0;orthogonalLoop=1;jettySize=auto;html=1;entryX=0.5;entryY=0;entryDx=0;entryDy=0;" edge="1" parent="1" source="6iiAgWFp4yU4Dd8Ow9p1-1" target="6iiAgWFp4yU4Dd8Ow9p1-2">
          <mxGeometry relative="1" as="geometry" />
        </mxCell>
        <mxCell id="6iiAgWFp4yU4Dd8Ow9p1-1" value="" style="ellipse;whiteSpace=wrap;html=1;aspect=fixed;fillColor=#000000;strokeColor=#314354;fontColor=#ffffff;" vertex="1" parent="1">
          <mxGeometry x="420" y="-660" width="20" height="20" as="geometry" />
        </mxCell>
        <mxCell id="6iiAgWFp4yU4Dd8Ow9p1-2" value="" style="rhombus;whiteSpace=wrap;html=1;" vertex="1" parent="1">
          <mxGeometry x="405" y="-610" width="50" height="50" as="geometry" />
        </mxCell>
        <mxCell id="6iiAgWFp4yU4Dd8Ow9p1-4" value="Rotate +/-1&lt;sup&gt;o&lt;/sup&gt;&amp;nbsp;" style="strokeWidth=2;html=1;shape=mxgraph.flowchart.terminator;whiteSpace=wrap;" vertex="1" parent="1">
          <mxGeometry x="-40" y="-285" width="280" height="30" as="geometry" />
        </mxCell>
        <mxCell id="odk8XBI7jBrf2oWu8FwO-34" style="edgeStyle=orthogonalEdgeStyle;rounded=0;orthogonalLoop=1;jettySize=auto;html=1;entryX=0.5;entryY=0;entryDx=0;entryDy=0;" edge="1" parent="1" source="6iiAgWFp4yU4Dd8Ow9p1-5" target="odk8XBI7jBrf2oWu8FwO-33">
          <mxGeometry relative="1" as="geometry" />
        </mxCell>
        <mxCell id="6iiAgWFp4yU4Dd8Ow9p1-5" value="Check for signals (IR pair)" style="strokeWidth=2;html=1;shape=mxgraph.flowchart.terminator;whiteSpace=wrap;" vertex="1" parent="1">
          <mxGeometry x="-40" y="-195" width="280" height="30" as="geometry" />
        </mxCell>
        <mxCell id="odk8XBI7jBrf2oWu8FwO-3" style="edgeStyle=orthogonalEdgeStyle;rounded=0;orthogonalLoop=1;jettySize=auto;html=1;entryX=0.5;entryY=0;entryDx=0;entryDy=0;entryPerimeter=0;" edge="1" parent="1" source="6iiAgWFp4yU4Dd8Ow9p1-4" target="6iiAgWFp4yU4Dd8Ow9p1-5">
          <mxGeometry relative="1" as="geometry" />
        </mxCell>
        <mxCell id="odk8XBI7jBrf2oWu8FwO-5" style="edgeStyle=orthogonalEdgeStyle;rounded=0;orthogonalLoop=1;jettySize=auto;html=1;exitX=0;exitY=0.5;exitDx=0;exitDy=0;entryX=1;entryY=0.5;entryDx=0;entryDy=0;entryPerimeter=0;" edge="1" parent="1" source="6iiAgWFp4yU4Dd8Ow9p1-2" target="6iiAgWFp4yU4Dd8Ow9p1-3">
          <mxGeometry relative="1" as="geometry">
            <Array as="points" />
          </mxGeometry>
        </mxCell>
        <mxCell id="tDPXz1M6_XOlwYq1AetY-8" style="edgeStyle=orthogonalEdgeStyle;rounded=0;orthogonalLoop=1;jettySize=auto;html=1;exitX=0.5;exitY=1;exitDx=0;exitDy=0;entryX=0.5;entryY=0;entryDx=0;entryDy=0;" edge="1" parent="1" source="tDPXz1M6_XOlwYq1AetY-1" target="tDPXz1M6_XOlwYq1AetY-4">
          <mxGeometry relative="1" as="geometry" />
        </mxCell>
        <mxCell id="tDPXz1M6_XOlwYq1AetY-1" value="" style="ellipse;whiteSpace=wrap;html=1;aspect=fixed;fillColor=#000000;strokeColor=#314354;fontColor=#ffffff;" vertex="1" parent="1">
          <mxGeometry x="-660" y="300" width="20" height="20" as="geometry" />
        </mxCell>
        <mxCell id="tDPXz1M6_XOlwYq1AetY-9" style="edgeStyle=orthogonalEdgeStyle;rounded=0;orthogonalLoop=1;jettySize=auto;html=1;exitX=0.5;exitY=1;exitDx=0;exitDy=0;entryX=0.5;entryY=0;entryDx=0;entryDy=0;" edge="1" parent="1" source="tDPXz1M6_XOlwYq1AetY-4" target="tDPXz1M6_XOlwYq1AetY-5">
          <mxGeometry relative="1" as="geometry" />
        </mxCell>
        <mxCell id="tDPXz1M6_XOlwYq1AetY-4" value="Initialize Emitters 1&amp;amp;2" style="ellipse;whiteSpace=wrap;html=1;" vertex="1" parent="1">
          <mxGeometry x="-730" y="340" width="160" height="30" as="geometry" />
        </mxCell>
        <mxCell id="tDPXz1M6_XOlwYq1AetY-76" style="edgeStyle=orthogonalEdgeStyle;rounded=0;orthogonalLoop=1;jettySize=auto;html=1;exitX=0.5;exitY=1;exitDx=0;exitDy=0;entryX=0.5;entryY=0;entryDx=0;entryDy=0;" edge="1" parent="1" source="tDPXz1M6_XOlwYq1AetY-5" target="tDPXz1M6_XOlwYq1AetY-75">
          <mxGeometry relative="1" as="geometry" />
        </mxCell>
        <mxCell id="tDPXz1M6_XOlwYq1AetY-5" value="Initialize Photodiodes 1&amp;amp;2" style="ellipse;whiteSpace=wrap;html=1;" vertex="1" parent="1">
          <mxGeometry x="-730" y="390" width="160" height="30" as="geometry" />
        </mxCell>
        <mxCell id="tDPXz1M6_XOlwYq1AetY-11" style="edgeStyle=orthogonalEdgeStyle;rounded=0;orthogonalLoop=1;jettySize=auto;html=1;exitX=0.5;exitY=1;exitDx=0;exitDy=0;entryX=0.5;entryY=0;entryDx=0;entryDy=0;" edge="1" parent="1" source="tDPXz1M6_XOlwYq1AetY-6" target="tDPXz1M6_XOlwYq1AetY-7">
          <mxGeometry relative="1" as="geometry" />
        </mxCell>
        <mxCell id="tDPXz1M6_XOlwYq1AetY-6" value="Check for Calibration Input" style="ellipse;whiteSpace=wrap;html=1;" vertex="1" parent="1">
          <mxGeometry x="-730" y="540" width="160" height="30" as="geometry" />
        </mxCell>
        <mxCell id="tDPXz1M6_XOlwYq1AetY-46" style="edgeStyle=orthogonalEdgeStyle;rounded=0;orthogonalLoop=1;jettySize=auto;html=1;exitX=1;exitY=0.5;exitDx=0;exitDy=0;entryX=1;entryY=1;entryDx=0;entryDy=0;" edge="1" parent="1" source="tDPXz1M6_XOlwYq1AetY-7" target="tDPXz1M6_XOlwYq1AetY-6">
          <mxGeometry relative="1" as="geometry">
            <Array as="points">
              <mxPoint x="-545" y="635" />
              <mxPoint x="-545" y="565" />
            </Array>
          </mxGeometry>
        </mxCell>
        <mxCell id="tDPXz1M6_XOlwYq1AetY-48" style="edgeStyle=orthogonalEdgeStyle;rounded=0;orthogonalLoop=1;jettySize=auto;html=1;exitX=0.5;exitY=1;exitDx=0;exitDy=0;entryX=0.5;entryY=0;entryDx=0;entryDy=0;" edge="1" parent="1" source="tDPXz1M6_XOlwYq1AetY-7" target="tDPXz1M6_XOlwYq1AetY-12">
          <mxGeometry relative="1" as="geometry" />
        </mxCell>
        <mxCell id="tDPXz1M6_XOlwYq1AetY-7" value="" style="rhombus;whiteSpace=wrap;html=1;" vertex="1" parent="1">
          <mxGeometry x="-675" y="610" width="50" height="50" as="geometry" />
        </mxCell>
        <mxCell id="tDPXz1M6_XOlwYq1AetY-20" style="edgeStyle=orthogonalEdgeStyle;rounded=0;orthogonalLoop=1;jettySize=auto;html=1;exitX=0.5;exitY=1;exitDx=0;exitDy=0;entryX=0.5;entryY=0;entryDx=0;entryDy=0;" edge="1" parent="1" source="tDPXz1M6_XOlwYq1AetY-12" target="tDPXz1M6_XOlwYq1AetY-13">
          <mxGeometry relative="1" as="geometry" />
        </mxCell>
        <mxCell id="tDPXz1M6_XOlwYq1AetY-12" value="Clear Variable Index 1" style="ellipse;whiteSpace=wrap;html=1;" vertex="1" parent="1">
          <mxGeometry x="-730" y="695" width="160" height="30" as="geometry" />
        </mxCell>
        <mxCell id="tDPXz1M6_XOlwYq1AetY-21" style="edgeStyle=orthogonalEdgeStyle;rounded=0;orthogonalLoop=1;jettySize=auto;html=1;exitX=0.5;exitY=1;exitDx=0;exitDy=0;entryX=0.5;entryY=0;entryDx=0;entryDy=0;" edge="1" parent="1" source="tDPXz1M6_XOlwYq1AetY-13" target="tDPXz1M6_XOlwYq1AetY-14">
          <mxGeometry relative="1" as="geometry" />
        </mxCell>
        <mxCell id="tDPXz1M6_XOlwYq1AetY-13" value="Read Rotary Input (x)" style="ellipse;whiteSpace=wrap;html=1;" vertex="1" parent="1">
          <mxGeometry x="-730" y="740" width="160" height="30" as="geometry" />
        </mxCell>
        <mxCell id="tDPXz1M6_XOlwYq1AetY-22" style="edgeStyle=orthogonalEdgeStyle;rounded=0;orthogonalLoop=1;jettySize=auto;html=1;exitX=0.5;exitY=1;exitDx=0;exitDy=0;entryX=0.5;entryY=0;entryDx=0;entryDy=0;" edge="1" parent="1" source="tDPXz1M6_XOlwYq1AetY-14" target="tDPXz1M6_XOlwYq1AetY-15">
          <mxGeometry relative="1" as="geometry" />
        </mxCell>
        <mxCell id="tDPXz1M6_XOlwYq1AetY-14" value="Read Photodiode 1 Value (y)" style="ellipse;whiteSpace=wrap;html=1;" vertex="1" parent="1">
          <mxGeometry x="-740" y="790" width="180" height="30" as="geometry" />
        </mxCell>
        <mxCell id="tDPXz1M6_XOlwYq1AetY-23" style="edgeStyle=orthogonalEdgeStyle;rounded=0;orthogonalLoop=1;jettySize=auto;html=1;exitX=0.5;exitY=1;exitDx=0;exitDy=0;entryX=0.5;entryY=0;entryDx=0;entryDy=0;" edge="1" parent="1" source="tDPXz1M6_XOlwYq1AetY-15" target="tDPXz1M6_XOlwYq1AetY-16">
          <mxGeometry relative="1" as="geometry" />
        </mxCell>
        <mxCell id="tDPXz1M6_XOlwYq1AetY-15" value="Store Value in Index&lt;div&gt;( y[x] )&lt;/div&gt;" style="ellipse;whiteSpace=wrap;html=1;" vertex="1" parent="1">
          <mxGeometry x="-745" y="840" width="190" height="50" as="geometry" />
        </mxCell>
        <mxCell id="tDPXz1M6_XOlwYq1AetY-24" style="edgeStyle=orthogonalEdgeStyle;rounded=0;orthogonalLoop=1;jettySize=auto;html=1;exitX=0.5;exitY=1;exitDx=0;exitDy=0;entryX=0.5;entryY=0;entryDx=0;entryDy=0;" edge="1" parent="1" source="tDPXz1M6_XOlwYq1AetY-16" target="tDPXz1M6_XOlwYq1AetY-17">
          <mxGeometry relative="1" as="geometry" />
        </mxCell>
        <mxCell id="tDPXz1M6_XOlwYq1AetY-16" value="Check if Rotary Input is&lt;div&gt;at Maximum&lt;/div&gt;" style="ellipse;whiteSpace=wrap;html=1;" vertex="1" parent="1">
          <mxGeometry x="-735" y="910" width="170" height="50" as="geometry" />
        </mxCell>
        <mxCell id="tDPXz1M6_XOlwYq1AetY-25" style="edgeStyle=orthogonalEdgeStyle;rounded=0;orthogonalLoop=1;jettySize=auto;html=1;exitX=0;exitY=0.5;exitDx=0;exitDy=0;entryX=0;entryY=0.5;entryDx=0;entryDy=0;" edge="1" parent="1" source="tDPXz1M6_XOlwYq1AetY-17" target="tDPXz1M6_XOlwYq1AetY-13">
          <mxGeometry relative="1" as="geometry">
            <mxPoint x="-760" y="760" as="targetPoint" />
            <Array as="points">
              <mxPoint x="-760" y="1005" />
              <mxPoint x="-760" y="755" />
            </Array>
          </mxGeometry>
        </mxCell>
        <mxCell id="tDPXz1M6_XOlwYq1AetY-39" style="edgeStyle=orthogonalEdgeStyle;rounded=0;orthogonalLoop=1;jettySize=auto;html=1;exitX=0.5;exitY=1;exitDx=0;exitDy=0;entryX=0.5;entryY=0;entryDx=0;entryDy=0;" edge="1" parent="1" source="tDPXz1M6_XOlwYq1AetY-17" target="tDPXz1M6_XOlwYq1AetY-30">
          <mxGeometry relative="1" as="geometry" />
        </mxCell>
        <mxCell id="tDPXz1M6_XOlwYq1AetY-17" value="" style="rhombus;whiteSpace=wrap;html=1;" vertex="1" parent="1">
          <mxGeometry x="-675" y="980" width="50" height="50" as="geometry" />
        </mxCell>
        <mxCell id="tDPXz1M6_XOlwYq1AetY-19" value="[Input]" style="text;html=1;whiteSpace=wrap;strokeColor=none;fillColor=none;align=center;verticalAlign=middle;rounded=0;" vertex="1" parent="1">
          <mxGeometry x="-660" y="660" width="60" height="30" as="geometry" />
        </mxCell>
        <mxCell id="tDPXz1M6_XOlwYq1AetY-27" value="[Not Maximum]" style="text;html=1;whiteSpace=wrap;strokeColor=none;fillColor=none;align=center;verticalAlign=middle;rounded=0;" vertex="1" parent="1">
          <mxGeometry x="-760" y="980" width="85" height="30" as="geometry" />
        </mxCell>
        <mxCell id="tDPXz1M6_XOlwYq1AetY-29" style="edgeStyle=orthogonalEdgeStyle;rounded=0;orthogonalLoop=1;jettySize=auto;html=1;exitX=0.5;exitY=1;exitDx=0;exitDy=0;entryX=0.5;entryY=0;entryDx=0;entryDy=0;" edge="1" parent="1" source="tDPXz1M6_XOlwYq1AetY-30" target="tDPXz1M6_XOlwYq1AetY-32">
          <mxGeometry relative="1" as="geometry" />
        </mxCell>
        <mxCell id="tDPXz1M6_XOlwYq1AetY-30" value="Clear Variable Index 2" style="ellipse;whiteSpace=wrap;html=1;" vertex="1" parent="1">
          <mxGeometry x="-730" y="1070" width="160" height="30" as="geometry" />
        </mxCell>
        <mxCell id="tDPXz1M6_XOlwYq1AetY-31" style="edgeStyle=orthogonalEdgeStyle;rounded=0;orthogonalLoop=1;jettySize=auto;html=1;exitX=0.5;exitY=1;exitDx=0;exitDy=0;entryX=0.5;entryY=0;entryDx=0;entryDy=0;" edge="1" parent="1" source="tDPXz1M6_XOlwYq1AetY-32" target="tDPXz1M6_XOlwYq1AetY-34">
          <mxGeometry relative="1" as="geometry" />
        </mxCell>
        <mxCell id="tDPXz1M6_XOlwYq1AetY-32" value="Read Rotary Input (x)" style="ellipse;whiteSpace=wrap;html=1;" vertex="1" parent="1">
          <mxGeometry x="-730" y="1115" width="160" height="30" as="geometry" />
        </mxCell>
        <mxCell id="tDPXz1M6_XOlwYq1AetY-33" style="edgeStyle=orthogonalEdgeStyle;rounded=0;orthogonalLoop=1;jettySize=auto;html=1;exitX=0.5;exitY=1;exitDx=0;exitDy=0;entryX=0.5;entryY=0;entryDx=0;entryDy=0;" edge="1" parent="1" source="tDPXz1M6_XOlwYq1AetY-34" target="tDPXz1M6_XOlwYq1AetY-36">
          <mxGeometry relative="1" as="geometry" />
        </mxCell>
        <mxCell id="tDPXz1M6_XOlwYq1AetY-34" value="Read Photodiode 2 Value (z)" style="ellipse;whiteSpace=wrap;html=1;" vertex="1" parent="1">
          <mxGeometry x="-740" y="1165" width="180" height="30" as="geometry" />
        </mxCell>
        <mxCell id="tDPXz1M6_XOlwYq1AetY-35" style="edgeStyle=orthogonalEdgeStyle;rounded=0;orthogonalLoop=1;jettySize=auto;html=1;exitX=0.5;exitY=1;exitDx=0;exitDy=0;entryX=0.5;entryY=0;entryDx=0;entryDy=0;" edge="1" parent="1" source="tDPXz1M6_XOlwYq1AetY-36" target="tDPXz1M6_XOlwYq1AetY-38">
          <mxGeometry relative="1" as="geometry" />
        </mxCell>
        <mxCell id="tDPXz1M6_XOlwYq1AetY-36" value="Store Value in Index&lt;div&gt;( z[x] )&lt;/div&gt;" style="ellipse;whiteSpace=wrap;html=1;" vertex="1" parent="1">
          <mxGeometry x="-745" y="1215" width="190" height="50" as="geometry" />
        </mxCell>
        <mxCell id="tDPXz1M6_XOlwYq1AetY-37" style="edgeStyle=orthogonalEdgeStyle;rounded=0;orthogonalLoop=1;jettySize=auto;html=1;exitX=0.5;exitY=1;exitDx=0;exitDy=0;entryX=0.5;entryY=0;entryDx=0;entryDy=0;" edge="1" parent="1" source="tDPXz1M6_XOlwYq1AetY-38" target="tDPXz1M6_XOlwYq1AetY-41">
          <mxGeometry relative="1" as="geometry">
            <mxPoint x="-650" y="1355" as="targetPoint" />
          </mxGeometry>
        </mxCell>
        <mxCell id="tDPXz1M6_XOlwYq1AetY-38" value="Check if Rotary Input is&lt;div&gt;at Minimum&lt;/div&gt;" style="ellipse;whiteSpace=wrap;html=1;" vertex="1" parent="1">
          <mxGeometry x="-735" y="1285" width="170" height="50" as="geometry" />
        </mxCell>
        <mxCell id="tDPXz1M6_XOlwYq1AetY-40" value="[At Maximum]" style="text;html=1;whiteSpace=wrap;strokeColor=none;fillColor=none;align=center;verticalAlign=middle;rounded=0;" vertex="1" parent="1">
          <mxGeometry x="-650" y="1030" width="80" height="30" as="geometry" />
        </mxCell>
        <mxCell id="tDPXz1M6_XOlwYq1AetY-42" style="edgeStyle=orthogonalEdgeStyle;rounded=0;orthogonalLoop=1;jettySize=auto;html=1;exitX=0;exitY=0.5;exitDx=0;exitDy=0;entryX=0;entryY=0.5;entryDx=0;entryDy=0;" edge="1" parent="1" source="tDPXz1M6_XOlwYq1AetY-41" target="tDPXz1M6_XOlwYq1AetY-32">
          <mxGeometry relative="1" as="geometry">
            <Array as="points">
              <mxPoint x="-760" y="1385" />
              <mxPoint x="-760" y="1130" />
            </Array>
          </mxGeometry>
        </mxCell>
        <mxCell id="tDPXz1M6_XOlwYq1AetY-68" style="edgeStyle=orthogonalEdgeStyle;rounded=0;orthogonalLoop=1;jettySize=auto;html=1;exitX=1;exitY=0.5;exitDx=0;exitDy=0;entryX=0.5;entryY=0;entryDx=0;entryDy=0;" edge="1" parent="1" source="tDPXz1M6_XOlwYq1AetY-41" target="tDPXz1M6_XOlwYq1AetY-45">
          <mxGeometry relative="1" as="geometry">
            <Array as="points">
              <mxPoint x="-520" y="1385" />
              <mxPoint x="-520" y="680" />
              <mxPoint x="-350" y="680" />
            </Array>
          </mxGeometry>
        </mxCell>
        <mxCell id="tDPXz1M6_XOlwYq1AetY-41" value="" style="rhombus;whiteSpace=wrap;html=1;" vertex="1" parent="1">
          <mxGeometry x="-675" y="1360" width="50" height="50" as="geometry" />
        </mxCell>
        <mxCell id="tDPXz1M6_XOlwYq1AetY-43" value="[Not Minimum]" style="text;html=1;whiteSpace=wrap;strokeColor=none;fillColor=none;align=center;verticalAlign=middle;rounded=0;" vertex="1" parent="1">
          <mxGeometry x="-760" y="1360" width="85" height="30" as="geometry" />
        </mxCell>
        <mxCell id="tDPXz1M6_XOlwYq1AetY-44" value="[At Minimum]" style="text;html=1;whiteSpace=wrap;strokeColor=none;fillColor=none;align=center;verticalAlign=middle;rounded=0;" vertex="1" parent="1">
          <mxGeometry x="-625" y="1360" width="80" height="30" as="geometry" />
        </mxCell>
        <mxCell id="tDPXz1M6_XOlwYq1AetY-52" style="edgeStyle=orthogonalEdgeStyle;rounded=0;orthogonalLoop=1;jettySize=auto;html=1;exitX=0.5;exitY=1;exitDx=0;exitDy=0;entryX=0.5;entryY=0;entryDx=0;entryDy=0;" edge="1" parent="1" source="tDPXz1M6_XOlwYq1AetY-45" target="tDPXz1M6_XOlwYq1AetY-51">
          <mxGeometry relative="1" as="geometry" />
        </mxCell>
        <mxCell id="tDPXz1M6_XOlwYq1AetY-45" value="Read Photodiode 1 Value" style="ellipse;whiteSpace=wrap;html=1;" vertex="1" parent="1">
          <mxGeometry x="-430" y="700" width="160" height="30" as="geometry" />
        </mxCell>
        <mxCell id="tDPXz1M6_XOlwYq1AetY-47" value="[No Input]" style="text;html=1;whiteSpace=wrap;strokeColor=none;fillColor=none;align=center;verticalAlign=middle;rounded=0;" vertex="1" parent="1">
          <mxGeometry x="-625" y="610" width="60" height="30" as="geometry" />
        </mxCell>
        <mxCell id="tDPXz1M6_XOlwYq1AetY-69" style="edgeStyle=orthogonalEdgeStyle;rounded=0;orthogonalLoop=1;jettySize=auto;html=1;exitX=0.5;exitY=1;exitDx=0;exitDy=0;entryX=0.5;entryY=0;entryDx=0;entryDy=0;" edge="1" parent="1" source="tDPXz1M6_XOlwYq1AetY-50" target="tDPXz1M6_XOlwYq1AetY-67">
          <mxGeometry relative="1" as="geometry" />
        </mxCell>
        <mxCell id="tDPXz1M6_XOlwYq1AetY-50" value="Check for Calibration Input" style="ellipse;whiteSpace=wrap;html=1;" vertex="1" parent="1">
          <mxGeometry x="-430" y="1095" width="160" height="30" as="geometry" />
        </mxCell>
        <mxCell id="tDPXz1M6_XOlwYq1AetY-55" style="edgeStyle=orthogonalEdgeStyle;rounded=0;orthogonalLoop=1;jettySize=auto;html=1;exitX=0.5;exitY=1;exitDx=0;exitDy=0;entryX=0.5;entryY=0;entryDx=0;entryDy=0;" edge="1" parent="1" source="tDPXz1M6_XOlwYq1AetY-51" target="tDPXz1M6_XOlwYq1AetY-54">
          <mxGeometry relative="1" as="geometry" />
        </mxCell>
        <mxCell id="tDPXz1M6_XOlwYq1AetY-51" value="Check if Value = y[x_min]" style="ellipse;whiteSpace=wrap;html=1;" vertex="1" parent="1">
          <mxGeometry x="-430" y="750" width="160" height="30" as="geometry" />
        </mxCell>
        <mxCell id="tDPXz1M6_XOlwYq1AetY-64" style="edgeStyle=orthogonalEdgeStyle;rounded=0;orthogonalLoop=1;jettySize=auto;html=1;exitX=0.5;exitY=1;exitDx=0;exitDy=0;entryX=0.5;entryY=0;entryDx=0;entryDy=0;" edge="1" parent="1" source="tDPXz1M6_XOlwYq1AetY-53" target="tDPXz1M6_XOlwYq1AetY-63">
          <mxGeometry relative="1" as="geometry" />
        </mxCell>
        <mxCell id="tDPXz1M6_XOlwYq1AetY-53" value="Check if Value = z[x_min]" style="ellipse;whiteSpace=wrap;html=1;" vertex="1" parent="1">
          <mxGeometry x="-430" y="950" width="160" height="30" as="geometry" />
        </mxCell>
        <mxCell id="tDPXz1M6_XOlwYq1AetY-60" style="edgeStyle=orthogonalEdgeStyle;rounded=0;orthogonalLoop=1;jettySize=auto;html=1;exitX=0.5;exitY=1;exitDx=0;exitDy=0;entryX=0.5;entryY=0;entryDx=0;entryDy=0;" edge="1" parent="1" source="tDPXz1M6_XOlwYq1AetY-54" target="tDPXz1M6_XOlwYq1AetY-58">
          <mxGeometry relative="1" as="geometry" />
        </mxCell>
        <mxCell id="tDPXz1M6_XOlwYq1AetY-122" style="edgeStyle=orthogonalEdgeStyle;rounded=0;orthogonalLoop=1;jettySize=auto;html=1;exitX=1;exitY=0.5;exitDx=0;exitDy=0;entryX=0;entryY=0;entryDx=0;entryDy=0;" edge="1" parent="1" source="tDPXz1M6_XOlwYq1AetY-54" target="tDPXz1M6_XOlwYq1AetY-79">
          <mxGeometry relative="1" as="geometry">
            <Array as="points">
              <mxPoint x="-250" y="835" />
              <mxPoint x="-250" y="746" />
            </Array>
          </mxGeometry>
        </mxCell>
        <mxCell id="tDPXz1M6_XOlwYq1AetY-54" value="" style="rhombus;whiteSpace=wrap;html=1;" vertex="1" parent="1">
          <mxGeometry x="-375" y="810" width="50" height="50" as="geometry" />
        </mxCell>
        <mxCell id="tDPXz1M6_XOlwYq1AetY-57" value="[Equal]" style="text;html=1;whiteSpace=wrap;strokeColor=none;fillColor=none;align=center;verticalAlign=middle;rounded=0;" vertex="1" parent="1">
          <mxGeometry x="-360" y="860" width="60" height="30" as="geometry" />
        </mxCell>
        <mxCell id="tDPXz1M6_XOlwYq1AetY-61" style="edgeStyle=orthogonalEdgeStyle;rounded=0;orthogonalLoop=1;jettySize=auto;html=1;exitX=0.5;exitY=1;exitDx=0;exitDy=0;entryX=0.5;entryY=0;entryDx=0;entryDy=0;" edge="1" parent="1" source="tDPXz1M6_XOlwYq1AetY-58" target="tDPXz1M6_XOlwYq1AetY-53">
          <mxGeometry relative="1" as="geometry" />
        </mxCell>
        <mxCell id="tDPXz1M6_XOlwYq1AetY-58" value="Read Photodiode 2 Value" style="ellipse;whiteSpace=wrap;html=1;" vertex="1" parent="1">
          <mxGeometry x="-430" y="900" width="160" height="30" as="geometry" />
        </mxCell>
        <mxCell id="tDPXz1M6_XOlwYq1AetY-65" style="edgeStyle=orthogonalEdgeStyle;rounded=0;orthogonalLoop=1;jettySize=auto;html=1;exitX=0.5;exitY=1;exitDx=0;exitDy=0;entryX=0.5;entryY=0;entryDx=0;entryDy=0;" edge="1" parent="1" source="tDPXz1M6_XOlwYq1AetY-63" target="tDPXz1M6_XOlwYq1AetY-50">
          <mxGeometry relative="1" as="geometry" />
        </mxCell>
        <mxCell id="tDPXz1M6_XOlwYq1AetY-116" style="edgeStyle=orthogonalEdgeStyle;rounded=0;orthogonalLoop=1;jettySize=auto;html=1;exitX=1;exitY=0.5;exitDx=0;exitDy=0;entryX=0;entryY=1;entryDx=0;entryDy=0;" edge="1" parent="1" source="tDPXz1M6_XOlwYq1AetY-63" target="tDPXz1M6_XOlwYq1AetY-79">
          <mxGeometry relative="1" as="geometry">
            <Array as="points">
              <mxPoint x="-230" y="1035" />
              <mxPoint x="-230" y="774" />
            </Array>
          </mxGeometry>
        </mxCell>
        <mxCell id="tDPXz1M6_XOlwYq1AetY-63" value="" style="rhombus;whiteSpace=wrap;html=1;" vertex="1" parent="1">
          <mxGeometry x="-375" y="1010" width="50" height="50" as="geometry" />
        </mxCell>
        <mxCell id="tDPXz1M6_XOlwYq1AetY-66" value="[Equal]" style="text;html=1;whiteSpace=wrap;strokeColor=none;fillColor=none;align=center;verticalAlign=middle;rounded=0;" vertex="1" parent="1">
          <mxGeometry x="-360" y="1060" width="60" height="30" as="geometry" />
        </mxCell>
        <mxCell id="tDPXz1M6_XOlwYq1AetY-70" style="edgeStyle=orthogonalEdgeStyle;rounded=0;orthogonalLoop=1;jettySize=auto;html=1;exitX=0;exitY=0.5;exitDx=0;exitDy=0;entryX=0;entryY=0.5;entryDx=0;entryDy=0;" edge="1" parent="1" source="tDPXz1M6_XOlwYq1AetY-67" target="tDPXz1M6_XOlwYq1AetY-45">
          <mxGeometry relative="1" as="geometry" />
        </mxCell>
        <mxCell id="tDPXz1M6_XOlwYq1AetY-72" style="edgeStyle=orthogonalEdgeStyle;rounded=0;orthogonalLoop=1;jettySize=auto;html=1;exitX=0.5;exitY=1;exitDx=0;exitDy=0;entryX=0;entryY=0.5;entryDx=0;entryDy=0;" edge="1" parent="1" source="tDPXz1M6_XOlwYq1AetY-67" target="tDPXz1M6_XOlwYq1AetY-12">
          <mxGeometry relative="1" as="geometry">
            <Array as="points">
              <mxPoint x="-350" y="1450" />
              <mxPoint x="-800" y="1450" />
              <mxPoint x="-800" y="710" />
            </Array>
          </mxGeometry>
        </mxCell>
        <mxCell id="tDPXz1M6_XOlwYq1AetY-67" value="" style="rhombus;whiteSpace=wrap;html=1;" vertex="1" parent="1">
          <mxGeometry x="-375" y="1145" width="50" height="50" as="geometry" />
        </mxCell>
        <mxCell id="tDPXz1M6_XOlwYq1AetY-71" value="[No Input]" style="text;html=1;whiteSpace=wrap;strokeColor=none;fillColor=none;align=center;verticalAlign=middle;rounded=0;" vertex="1" parent="1">
          <mxGeometry x="-435" y="1145" width="60" height="30" as="geometry" />
        </mxCell>
        <mxCell id="tDPXz1M6_XOlwYq1AetY-73" value="[Input]" style="text;html=1;whiteSpace=wrap;strokeColor=none;fillColor=none;align=center;verticalAlign=middle;rounded=0;" vertex="1" parent="1">
          <mxGeometry x="-400" y="1185" width="60" height="30" as="geometry" />
        </mxCell>
        <mxCell id="tDPXz1M6_XOlwYq1AetY-78" style="edgeStyle=orthogonalEdgeStyle;rounded=0;orthogonalLoop=1;jettySize=auto;html=1;exitX=0.5;exitY=1;exitDx=0;exitDy=0;entryX=0.5;entryY=0;entryDx=0;entryDy=0;" edge="1" parent="1" source="tDPXz1M6_XOlwYq1AetY-74" target="tDPXz1M6_XOlwYq1AetY-6">
          <mxGeometry relative="1" as="geometry" />
        </mxCell>
        <mxCell id="tDPXz1M6_XOlwYq1AetY-74" value="Declare Variable Index 2" style="ellipse;whiteSpace=wrap;html=1;" vertex="1" parent="1">
          <mxGeometry x="-730" y="490" width="160" height="30" as="geometry" />
        </mxCell>
        <mxCell id="tDPXz1M6_XOlwYq1AetY-77" style="edgeStyle=orthogonalEdgeStyle;rounded=0;orthogonalLoop=1;jettySize=auto;html=1;exitX=0.5;exitY=1;exitDx=0;exitDy=0;entryX=0.5;entryY=0;entryDx=0;entryDy=0;" edge="1" parent="1" source="tDPXz1M6_XOlwYq1AetY-75" target="tDPXz1M6_XOlwYq1AetY-74">
          <mxGeometry relative="1" as="geometry" />
        </mxCell>
        <mxCell id="tDPXz1M6_XOlwYq1AetY-75" value="Declare Variable Index 1" style="ellipse;whiteSpace=wrap;html=1;" vertex="1" parent="1">
          <mxGeometry x="-730" y="440" width="160" height="30" as="geometry" />
        </mxCell>
        <mxCell id="tDPXz1M6_XOlwYq1AetY-86" style="edgeStyle=orthogonalEdgeStyle;rounded=0;orthogonalLoop=1;jettySize=auto;html=1;exitX=0.5;exitY=1;exitDx=0;exitDy=0;entryX=0.5;entryY=0;entryDx=0;entryDy=0;" edge="1" parent="1" source="tDPXz1M6_XOlwYq1AetY-79" target="tDPXz1M6_XOlwYq1AetY-80">
          <mxGeometry relative="1" as="geometry" />
        </mxCell>
        <mxCell id="tDPXz1M6_XOlwYq1AetY-79" value="Tell Motor to Begin&lt;span style=&quot;background-color: transparent; color: light-dark(rgb(0, 0, 0), rgb(255, 255, 255));&quot;&gt;&amp;nbsp;Rotation&lt;/span&gt;" style="ellipse;whiteSpace=wrap;html=1;" vertex="1" parent="1">
          <mxGeometry x="-130" y="740" width="160" height="40" as="geometry" />
        </mxCell>
        <mxCell id="tDPXz1M6_XOlwYq1AetY-87" style="edgeStyle=orthogonalEdgeStyle;rounded=0;orthogonalLoop=1;jettySize=auto;html=1;exitX=0.5;exitY=1;exitDx=0;exitDy=0;entryX=0.5;entryY=0;entryDx=0;entryDy=0;" edge="1" parent="1" source="tDPXz1M6_XOlwYq1AetY-80" target="tDPXz1M6_XOlwYq1AetY-81">
          <mxGeometry relative="1" as="geometry" />
        </mxCell>
        <mxCell id="tDPXz1M6_XOlwYq1AetY-80" value="Read Rotary Input (x)" style="ellipse;whiteSpace=wrap;html=1;" vertex="1" parent="1">
          <mxGeometry x="-130" y="800" width="160" height="30" as="geometry" />
        </mxCell>
        <mxCell id="tDPXz1M6_XOlwYq1AetY-88" style="edgeStyle=orthogonalEdgeStyle;rounded=0;orthogonalLoop=1;jettySize=auto;html=1;exitX=0.5;exitY=1;exitDx=0;exitDy=0;entryX=0.5;entryY=0;entryDx=0;entryDy=0;" edge="1" parent="1" source="tDPXz1M6_XOlwYq1AetY-81" target="tDPXz1M6_XOlwYq1AetY-82">
          <mxGeometry relative="1" as="geometry" />
        </mxCell>
        <mxCell id="tDPXz1M6_XOlwYq1AetY-81" value="Read Photodiode 1 Value (y)" style="ellipse;whiteSpace=wrap;html=1;" vertex="1" parent="1">
          <mxGeometry x="-140" y="850" width="180" height="30" as="geometry" />
        </mxCell>
        <mxCell id="tDPXz1M6_XOlwYq1AetY-89" style="edgeStyle=orthogonalEdgeStyle;rounded=0;orthogonalLoop=1;jettySize=auto;html=1;exitX=0.5;exitY=1;exitDx=0;exitDy=0;entryX=0.5;entryY=0;entryDx=0;entryDy=0;" edge="1" parent="1" source="tDPXz1M6_XOlwYq1AetY-82" target="tDPXz1M6_XOlwYq1AetY-83">
          <mxGeometry relative="1" as="geometry" />
        </mxCell>
        <mxCell id="tDPXz1M6_XOlwYq1AetY-82" value="Check if Value y = y[x]" style="ellipse;whiteSpace=wrap;html=1;" vertex="1" parent="1">
          <mxGeometry x="-130" y="900" width="160" height="30" as="geometry" />
        </mxCell>
        <mxCell id="tDPXz1M6_XOlwYq1AetY-90" style="edgeStyle=orthogonalEdgeStyle;rounded=0;orthogonalLoop=1;jettySize=auto;html=1;exitX=0.5;exitY=1;exitDx=0;exitDy=0;entryX=0.5;entryY=0;entryDx=0;entryDy=0;" edge="1" parent="1" source="tDPXz1M6_XOlwYq1AetY-83" target="tDPXz1M6_XOlwYq1AetY-84">
          <mxGeometry relative="1" as="geometry" />
        </mxCell>
        <mxCell id="tDPXz1M6_XOlwYq1AetY-139" style="edgeStyle=orthogonalEdgeStyle;rounded=0;orthogonalLoop=1;jettySize=auto;html=1;exitX=1;exitY=0.5;exitDx=0;exitDy=0;entryX=0;entryY=0.5;entryDx=0;entryDy=0;" edge="1" parent="1" source="tDPXz1M6_XOlwYq1AetY-83" target="tDPXz1M6_XOlwYq1AetY-124">
          <mxGeometry relative="1" as="geometry">
            <Array as="points">
              <mxPoint x="70" y="975" />
              <mxPoint x="70" y="860" />
            </Array>
          </mxGeometry>
        </mxCell>
        <mxCell id="tDPXz1M6_XOlwYq1AetY-83" value="" style="rhombus;whiteSpace=wrap;html=1;" vertex="1" parent="1">
          <mxGeometry x="-75" y="950" width="50" height="50" as="geometry" />
        </mxCell>
        <mxCell id="tDPXz1M6_XOlwYq1AetY-91" style="edgeStyle=orthogonalEdgeStyle;rounded=0;orthogonalLoop=1;jettySize=auto;html=1;exitX=0.5;exitY=1;exitDx=0;exitDy=0;entryX=0.5;entryY=0;entryDx=0;entryDy=0;" edge="1" parent="1" source="tDPXz1M6_XOlwYq1AetY-84" target="tDPXz1M6_XOlwYq1AetY-85">
          <mxGeometry relative="1" as="geometry" />
        </mxCell>
        <mxCell id="tDPXz1M6_XOlwYq1AetY-84" value="Check if Rotary Input is&lt;div&gt;at Maximum&lt;/div&gt;" style="ellipse;whiteSpace=wrap;html=1;" vertex="1" parent="1">
          <mxGeometry x="-130" y="1030" width="160" height="50" as="geometry" />
        </mxCell>
        <mxCell id="tDPXz1M6_XOlwYq1AetY-92" style="edgeStyle=orthogonalEdgeStyle;rounded=0;orthogonalLoop=1;jettySize=auto;html=1;exitX=0;exitY=0.5;exitDx=0;exitDy=0;entryX=0;entryY=0.5;entryDx=0;entryDy=0;" edge="1" parent="1" source="tDPXz1M6_XOlwYq1AetY-85" target="tDPXz1M6_XOlwYq1AetY-80">
          <mxGeometry relative="1" as="geometry" />
        </mxCell>
        <mxCell id="tDPXz1M6_XOlwYq1AetY-103" style="edgeStyle=orthogonalEdgeStyle;rounded=0;orthogonalLoop=1;jettySize=auto;html=1;exitX=0.5;exitY=1;exitDx=0;exitDy=0;entryX=0.5;entryY=0;entryDx=0;entryDy=0;" edge="1" parent="1" source="tDPXz1M6_XOlwYq1AetY-85" target="tDPXz1M6_XOlwYq1AetY-94">
          <mxGeometry relative="1" as="geometry" />
        </mxCell>
        <mxCell id="tDPXz1M6_XOlwYq1AetY-85" value="" style="rhombus;whiteSpace=wrap;html=1;" vertex="1" parent="1">
          <mxGeometry x="-75" y="1100" width="50" height="50" as="geometry" />
        </mxCell>
        <mxCell id="tDPXz1M6_XOlwYq1AetY-93" style="edgeStyle=orthogonalEdgeStyle;rounded=0;orthogonalLoop=1;jettySize=auto;html=1;exitX=0.5;exitY=1;exitDx=0;exitDy=0;entryX=0.5;entryY=0;entryDx=0;entryDy=0;" edge="1" parent="1" source="tDPXz1M6_XOlwYq1AetY-94" target="tDPXz1M6_XOlwYq1AetY-96">
          <mxGeometry relative="1" as="geometry" />
        </mxCell>
        <mxCell id="tDPXz1M6_XOlwYq1AetY-94" value="Read Rotary Input (x)" style="ellipse;whiteSpace=wrap;html=1;" vertex="1" parent="1">
          <mxGeometry x="-130" y="1180" width="160" height="30" as="geometry" />
        </mxCell>
        <mxCell id="tDPXz1M6_XOlwYq1AetY-95" style="edgeStyle=orthogonalEdgeStyle;rounded=0;orthogonalLoop=1;jettySize=auto;html=1;exitX=0.5;exitY=1;exitDx=0;exitDy=0;entryX=0.5;entryY=0;entryDx=0;entryDy=0;" edge="1" parent="1" source="tDPXz1M6_XOlwYq1AetY-96" target="tDPXz1M6_XOlwYq1AetY-98">
          <mxGeometry relative="1" as="geometry" />
        </mxCell>
        <mxCell id="tDPXz1M6_XOlwYq1AetY-96" value="Read Photodiode 2 Value (z)" style="ellipse;whiteSpace=wrap;html=1;" vertex="1" parent="1">
          <mxGeometry x="-140" y="1230" width="180" height="30" as="geometry" />
        </mxCell>
        <mxCell id="tDPXz1M6_XOlwYq1AetY-97" style="edgeStyle=orthogonalEdgeStyle;rounded=0;orthogonalLoop=1;jettySize=auto;html=1;exitX=0.5;exitY=1;exitDx=0;exitDy=0;entryX=0.5;entryY=0;entryDx=0;entryDy=0;" edge="1" parent="1" source="tDPXz1M6_XOlwYq1AetY-98" target="tDPXz1M6_XOlwYq1AetY-100">
          <mxGeometry relative="1" as="geometry" />
        </mxCell>
        <mxCell id="tDPXz1M6_XOlwYq1AetY-98" value="Check if Value z = z[x]" style="ellipse;whiteSpace=wrap;html=1;" vertex="1" parent="1">
          <mxGeometry x="-130" y="1280" width="160" height="30" as="geometry" />
        </mxCell>
        <mxCell id="tDPXz1M6_XOlwYq1AetY-99" style="edgeStyle=orthogonalEdgeStyle;rounded=0;orthogonalLoop=1;jettySize=auto;html=1;exitX=0.5;exitY=1;exitDx=0;exitDy=0;entryX=0.5;entryY=0;entryDx=0;entryDy=0;" edge="1" parent="1" source="tDPXz1M6_XOlwYq1AetY-100" target="tDPXz1M6_XOlwYq1AetY-102">
          <mxGeometry relative="1" as="geometry" />
        </mxCell>
        <mxCell id="tDPXz1M6_XOlwYq1AetY-157" style="edgeStyle=orthogonalEdgeStyle;rounded=0;orthogonalLoop=1;jettySize=auto;html=1;exitX=1;exitY=0.5;exitDx=0;exitDy=0;entryX=0;entryY=0.5;entryDx=0;entryDy=0;" edge="1" parent="1" source="tDPXz1M6_XOlwYq1AetY-100" target="tDPXz1M6_XOlwYq1AetY-143">
          <mxGeometry relative="1" as="geometry">
            <Array as="points">
              <mxPoint x="60" y="1355" />
              <mxPoint x="60" y="1255" />
            </Array>
          </mxGeometry>
        </mxCell>
        <mxCell id="tDPXz1M6_XOlwYq1AetY-100" value="" style="rhombus;whiteSpace=wrap;html=1;" vertex="1" parent="1">
          <mxGeometry x="-75" y="1330" width="50" height="50" as="geometry" />
        </mxCell>
        <mxCell id="tDPXz1M6_XOlwYq1AetY-101" style="edgeStyle=orthogonalEdgeStyle;rounded=0;orthogonalLoop=1;jettySize=auto;html=1;exitX=0.5;exitY=1;exitDx=0;exitDy=0;entryX=0.5;entryY=0;entryDx=0;entryDy=0;" edge="1" parent="1" source="tDPXz1M6_XOlwYq1AetY-102">
          <mxGeometry relative="1" as="geometry">
            <mxPoint x="-50" y="1480" as="targetPoint" />
          </mxGeometry>
        </mxCell>
        <mxCell id="tDPXz1M6_XOlwYq1AetY-102" value="Check if Rotary Input is&lt;div&gt;at Minimum&lt;/div&gt;" style="ellipse;whiteSpace=wrap;html=1;" vertex="1" parent="1">
          <mxGeometry x="-130" y="1410" width="160" height="50" as="geometry" />
        </mxCell>
        <mxCell id="tDPXz1M6_XOlwYq1AetY-111" style="edgeStyle=orthogonalEdgeStyle;rounded=0;orthogonalLoop=1;jettySize=auto;html=1;exitX=0;exitY=0.5;exitDx=0;exitDy=0;entryX=0;entryY=0.5;entryDx=0;entryDy=0;" edge="1" parent="1" source="tDPXz1M6_XOlwYq1AetY-104" target="tDPXz1M6_XOlwYq1AetY-94">
          <mxGeometry relative="1" as="geometry" />
        </mxCell>
        <mxCell id="tDPXz1M6_XOlwYq1AetY-118" style="edgeStyle=orthogonalEdgeStyle;rounded=0;orthogonalLoop=1;jettySize=auto;html=1;exitX=0.5;exitY=1;exitDx=0;exitDy=0;entryX=1;entryY=0.5;entryDx=0;entryDy=0;jumpStyle=arc;jumpSize=7;" edge="1" parent="1" source="tDPXz1M6_XOlwYq1AetY-104" target="tDPXz1M6_XOlwYq1AetY-45">
          <mxGeometry relative="1" as="geometry">
            <Array as="points">
              <mxPoint x="-50" y="1550" />
              <mxPoint x="-190" y="1550" />
              <mxPoint x="-190" y="715" />
            </Array>
          </mxGeometry>
        </mxCell>
        <mxCell id="tDPXz1M6_XOlwYq1AetY-104" value="" style="rhombus;whiteSpace=wrap;html=1;" vertex="1" parent="1">
          <mxGeometry x="-75" y="1480" width="50" height="50" as="geometry" />
        </mxCell>
        <mxCell id="tDPXz1M6_XOlwYq1AetY-106" value="[Equal]" style="text;html=1;whiteSpace=wrap;strokeColor=none;fillColor=none;align=center;verticalAlign=middle;rounded=0;" vertex="1" parent="1">
          <mxGeometry x="-100" y="990" width="60" height="30" as="geometry" />
        </mxCell>
        <mxCell id="tDPXz1M6_XOlwYq1AetY-107" value="[At Maximum]" style="text;html=1;whiteSpace=wrap;strokeColor=none;fillColor=none;align=center;verticalAlign=middle;rounded=0;" vertex="1" parent="1">
          <mxGeometry x="-50" y="1145" width="80" height="30" as="geometry" />
        </mxCell>
        <mxCell id="tDPXz1M6_XOlwYq1AetY-108" value="[Not Maximum]" style="text;html=1;whiteSpace=wrap;strokeColor=none;fillColor=none;align=center;verticalAlign=middle;rounded=0;" vertex="1" parent="1">
          <mxGeometry x="-160" y="1120" width="85" height="30" as="geometry" />
        </mxCell>
        <mxCell id="tDPXz1M6_XOlwYq1AetY-110" value="[Equal]" style="text;html=1;whiteSpace=wrap;strokeColor=none;fillColor=none;align=center;verticalAlign=middle;rounded=0;" vertex="1" parent="1">
          <mxGeometry x="-100" y="1370" width="60" height="30" as="geometry" />
        </mxCell>
        <mxCell id="tDPXz1M6_XOlwYq1AetY-112" value="[At Minimum]" style="text;html=1;whiteSpace=wrap;strokeColor=none;fillColor=none;align=center;verticalAlign=middle;rounded=0;" vertex="1" parent="1">
          <mxGeometry x="-130" y="1530" width="80" height="30" as="geometry" />
        </mxCell>
        <mxCell id="tDPXz1M6_XOlwYq1AetY-113" value="[Not Minimum]" style="text;html=1;whiteSpace=wrap;strokeColor=none;fillColor=none;align=center;verticalAlign=middle;rounded=0;" vertex="1" parent="1">
          <mxGeometry x="-150" y="1480" width="85" height="30" as="geometry" />
        </mxCell>
        <mxCell id="tDPXz1M6_XOlwYq1AetY-115" value="[Not Equal]" style="text;html=1;whiteSpace=wrap;strokeColor=none;fillColor=none;align=center;verticalAlign=middle;rounded=0;" vertex="1" parent="1">
          <mxGeometry x="-320" y="810" width="70" height="30" as="geometry" />
        </mxCell>
        <mxCell id="tDPXz1M6_XOlwYq1AetY-117" value="[Not Equal]" style="text;html=1;whiteSpace=wrap;strokeColor=none;fillColor=none;align=center;verticalAlign=middle;rounded=0;" vertex="1" parent="1">
          <mxGeometry x="-320" y="1010" width="70" height="30" as="geometry" />
        </mxCell>
        <mxCell id="tDPXz1M6_XOlwYq1AetY-131" style="edgeStyle=orthogonalEdgeStyle;rounded=0;orthogonalLoop=1;jettySize=auto;html=1;exitX=0.5;exitY=1;exitDx=0;exitDy=0;entryX=0.5;entryY=0;entryDx=0;entryDy=0;" edge="1" parent="1" source="tDPXz1M6_XOlwYq1AetY-124" target="tDPXz1M6_XOlwYq1AetY-130">
          <mxGeometry relative="1" as="geometry" />
        </mxCell>
        <mxCell id="tDPXz1M6_XOlwYq1AetY-124" value="Tell Motor to Stop&lt;span style=&quot;background-color: transparent; color: light-dark(rgb(0, 0, 0), rgb(255, 255, 255));&quot;&gt;&amp;nbsp;Rotation&lt;/span&gt;" style="ellipse;whiteSpace=wrap;html=1;" vertex="1" parent="1">
          <mxGeometry x="100" y="840" width="160" height="40" as="geometry" />
        </mxCell>
        <mxCell id="tDPXz1M6_XOlwYq1AetY-125" style="edgeStyle=orthogonalEdgeStyle;rounded=0;orthogonalLoop=1;jettySize=auto;html=1;exitX=0.5;exitY=1;exitDx=0;exitDy=0;entryX=0.5;entryY=0;entryDx=0;entryDy=0;" edge="1" parent="1" source="tDPXz1M6_XOlwYq1AetY-126" target="tDPXz1M6_XOlwYq1AetY-128">
          <mxGeometry relative="1" as="geometry" />
        </mxCell>
        <mxCell id="tDPXz1M6_XOlwYq1AetY-133" style="edgeStyle=orthogonalEdgeStyle;rounded=0;orthogonalLoop=1;jettySize=auto;html=1;exitX=0.5;exitY=1;exitDx=0;exitDy=0;" edge="1" parent="1" source="tDPXz1M6_XOlwYq1AetY-126">
          <mxGeometry relative="1" as="geometry">
            <mxPoint x="180" y="1000" as="targetPoint" />
          </mxGeometry>
        </mxCell>
        <mxCell id="tDPXz1M6_XOlwYq1AetY-126" value="Read Photodiode 1 Value (y)" style="ellipse;whiteSpace=wrap;html=1;" vertex="1" parent="1">
          <mxGeometry x="90" y="950" width="180" height="30" as="geometry" />
        </mxCell>
        <mxCell id="tDPXz1M6_XOlwYq1AetY-127" style="edgeStyle=orthogonalEdgeStyle;rounded=0;orthogonalLoop=1;jettySize=auto;html=1;exitX=0.5;exitY=1;exitDx=0;exitDy=0;entryX=0.5;entryY=0;entryDx=0;entryDy=0;" edge="1" parent="1" source="tDPXz1M6_XOlwYq1AetY-128" target="tDPXz1M6_XOlwYq1AetY-129">
          <mxGeometry relative="1" as="geometry" />
        </mxCell>
        <mxCell id="tDPXz1M6_XOlwYq1AetY-128" value="Check if Value y = y[x]" style="ellipse;whiteSpace=wrap;html=1;" vertex="1" parent="1">
          <mxGeometry x="100" y="1000" width="160" height="30" as="geometry" />
        </mxCell>
        <mxCell id="tDPXz1M6_XOlwYq1AetY-134" style="edgeStyle=orthogonalEdgeStyle;rounded=0;orthogonalLoop=1;jettySize=auto;html=1;exitX=1;exitY=0.5;exitDx=0;exitDy=0;entryX=1;entryY=0.5;entryDx=0;entryDy=0;" edge="1" parent="1" source="tDPXz1M6_XOlwYq1AetY-129" target="tDPXz1M6_XOlwYq1AetY-130">
          <mxGeometry relative="1" as="geometry">
            <Array as="points">
              <mxPoint x="300" y="1075" />
              <mxPoint x="300" y="915" />
            </Array>
          </mxGeometry>
        </mxCell>
        <mxCell id="tDPXz1M6_XOlwYq1AetY-136" style="edgeStyle=orthogonalEdgeStyle;rounded=0;orthogonalLoop=1;jettySize=auto;html=1;exitX=0.5;exitY=1;exitDx=0;exitDy=0;entryX=0.5;entryY=0;entryDx=0;entryDy=0;" edge="1" parent="1" source="tDPXz1M6_XOlwYq1AetY-129" target="tDPXz1M6_XOlwYq1AetY-135">
          <mxGeometry relative="1" as="geometry" />
        </mxCell>
        <mxCell id="tDPXz1M6_XOlwYq1AetY-129" value="" style="rhombus;whiteSpace=wrap;html=1;" vertex="1" parent="1">
          <mxGeometry x="155" y="1050" width="50" height="50" as="geometry" />
        </mxCell>
        <mxCell id="tDPXz1M6_XOlwYq1AetY-132" style="edgeStyle=orthogonalEdgeStyle;rounded=0;orthogonalLoop=1;jettySize=auto;html=1;exitX=0.5;exitY=1;exitDx=0;exitDy=0;entryX=0.5;entryY=0;entryDx=0;entryDy=0;" edge="1" parent="1" source="tDPXz1M6_XOlwYq1AetY-130" target="tDPXz1M6_XOlwYq1AetY-126">
          <mxGeometry relative="1" as="geometry" />
        </mxCell>
        <mxCell id="tDPXz1M6_XOlwYq1AetY-130" value="Wait 2 Seconds" style="ellipse;whiteSpace=wrap;html=1;" vertex="1" parent="1">
          <mxGeometry x="90" y="900" width="180" height="30" as="geometry" />
        </mxCell>
        <mxCell id="tDPXz1M6_XOlwYq1AetY-141" style="edgeStyle=orthogonalEdgeStyle;rounded=0;orthogonalLoop=1;jettySize=auto;html=1;exitX=1;exitY=0.5;exitDx=0;exitDy=0;entryX=1;entryY=0.5;entryDx=0;entryDy=0;" edge="1" parent="1" source="tDPXz1M6_XOlwYq1AetY-135" target="tDPXz1M6_XOlwYq1AetY-80">
          <mxGeometry relative="1" as="geometry">
            <Array as="points">
              <mxPoint x="340" y="1145" />
              <mxPoint x="340" y="815" />
            </Array>
          </mxGeometry>
        </mxCell>
        <mxCell id="tDPXz1M6_XOlwYq1AetY-135" value="Tell Motor to Continue Rotation" style="ellipse;whiteSpace=wrap;html=1;" vertex="1" parent="1">
          <mxGeometry x="90" y="1130" width="180" height="30" as="geometry" />
        </mxCell>
        <mxCell id="tDPXz1M6_XOlwYq1AetY-137" value="[Not Equal]" style="text;html=1;whiteSpace=wrap;strokeColor=none;fillColor=none;align=center;verticalAlign=middle;rounded=0;" vertex="1" parent="1">
          <mxGeometry x="205" y="1050" width="70" height="30" as="geometry" />
        </mxCell>
        <mxCell id="tDPXz1M6_XOlwYq1AetY-138" value="[Equal]" style="text;html=1;whiteSpace=wrap;strokeColor=none;fillColor=none;align=center;verticalAlign=middle;rounded=0;" vertex="1" parent="1">
          <mxGeometry x="170" y="1095" width="60" height="30" as="geometry" />
        </mxCell>
        <mxCell id="tDPXz1M6_XOlwYq1AetY-140" value="[Not Equal]" style="text;html=1;whiteSpace=wrap;strokeColor=none;fillColor=none;align=center;verticalAlign=middle;rounded=0;" vertex="1" parent="1">
          <mxGeometry x="-25" y="950" width="70" height="30" as="geometry" />
        </mxCell>
        <mxCell id="tDPXz1M6_XOlwYq1AetY-142" style="edgeStyle=orthogonalEdgeStyle;rounded=0;orthogonalLoop=1;jettySize=auto;html=1;exitX=0.5;exitY=1;exitDx=0;exitDy=0;entryX=0.5;entryY=0;entryDx=0;entryDy=0;" edge="1" parent="1" source="tDPXz1M6_XOlwYq1AetY-143" target="tDPXz1M6_XOlwYq1AetY-153">
          <mxGeometry relative="1" as="geometry">
            <mxPoint x="170" y="1295" as="targetPoint" />
          </mxGeometry>
        </mxCell>
        <mxCell id="tDPXz1M6_XOlwYq1AetY-175" style="edgeStyle=orthogonalEdgeStyle;rounded=0;orthogonalLoop=1;jettySize=auto;html=1;dashed=1;" edge="1" parent="1" source="tDPXz1M6_XOlwYq1AetY-143">
          <mxGeometry relative="1" as="geometry">
            <mxPoint x="400" y="1140" as="targetPoint" />
          </mxGeometry>
        </mxCell>
        <mxCell id="tDPXz1M6_XOlwYq1AetY-143" value="Tell Motor to Stop&lt;span style=&quot;background-color: transparent; color: light-dark(rgb(0, 0, 0), rgb(255, 255, 255));&quot;&gt;&amp;nbsp;Rotation&lt;/span&gt;" style="ellipse;whiteSpace=wrap;html=1;" vertex="1" parent="1">
          <mxGeometry x="90" y="1235" width="160" height="40" as="geometry" />
        </mxCell>
        <mxCell id="tDPXz1M6_XOlwYq1AetY-144" style="edgeStyle=orthogonalEdgeStyle;rounded=0;orthogonalLoop=1;jettySize=auto;html=1;exitX=0.5;exitY=1;exitDx=0;exitDy=0;entryX=0.5;entryY=0;entryDx=0;entryDy=0;" edge="1" parent="1" target="tDPXz1M6_XOlwYq1AetY-148">
          <mxGeometry relative="1" as="geometry">
            <mxPoint x="170" y="1375" as="sourcePoint" />
          </mxGeometry>
        </mxCell>
        <mxCell id="tDPXz1M6_XOlwYq1AetY-145" style="edgeStyle=orthogonalEdgeStyle;rounded=0;orthogonalLoop=1;jettySize=auto;html=1;exitX=0.5;exitY=1;exitDx=0;exitDy=0;" edge="1" parent="1">
          <mxGeometry relative="1" as="geometry">
            <mxPoint x="170" y="1395" as="targetPoint" />
            <mxPoint x="170" y="1375" as="sourcePoint" />
          </mxGeometry>
        </mxCell>
        <mxCell id="tDPXz1M6_XOlwYq1AetY-146" value="Read Photodiode 2 Value (z)" style="ellipse;whiteSpace=wrap;html=1;" vertex="1" parent="1">
          <mxGeometry x="80" y="1350" width="180" height="30" as="geometry" />
        </mxCell>
        <mxCell id="tDPXz1M6_XOlwYq1AetY-147" style="edgeStyle=orthogonalEdgeStyle;rounded=0;orthogonalLoop=1;jettySize=auto;html=1;exitX=0.5;exitY=1;exitDx=0;exitDy=0;entryX=0.5;entryY=0;entryDx=0;entryDy=0;" edge="1" parent="1" source="tDPXz1M6_XOlwYq1AetY-148" target="tDPXz1M6_XOlwYq1AetY-151">
          <mxGeometry relative="1" as="geometry" />
        </mxCell>
        <mxCell id="tDPXz1M6_XOlwYq1AetY-148" value="Check if Value z = z[x]" style="ellipse;whiteSpace=wrap;html=1;" vertex="1" parent="1">
          <mxGeometry x="90" y="1395" width="160" height="30" as="geometry" />
        </mxCell>
        <mxCell id="tDPXz1M6_XOlwYq1AetY-149" style="edgeStyle=orthogonalEdgeStyle;rounded=0;orthogonalLoop=1;jettySize=auto;html=1;exitX=1;exitY=0.5;exitDx=0;exitDy=0;entryX=1;entryY=0.5;entryDx=0;entryDy=0;" edge="1" parent="1" source="tDPXz1M6_XOlwYq1AetY-151">
          <mxGeometry relative="1" as="geometry">
            <Array as="points">
              <mxPoint x="290" y="1470" />
              <mxPoint x="290" y="1310" />
            </Array>
            <mxPoint x="260" y="1310" as="targetPoint" />
          </mxGeometry>
        </mxCell>
        <mxCell id="tDPXz1M6_XOlwYq1AetY-150" style="edgeStyle=orthogonalEdgeStyle;rounded=0;orthogonalLoop=1;jettySize=auto;html=1;exitX=0.5;exitY=1;exitDx=0;exitDy=0;entryX=0.5;entryY=0;entryDx=0;entryDy=0;" edge="1" parent="1" source="tDPXz1M6_XOlwYq1AetY-151" target="tDPXz1M6_XOlwYq1AetY-154">
          <mxGeometry relative="1" as="geometry">
            <mxPoint x="170" y="1525" as="targetPoint" />
          </mxGeometry>
        </mxCell>
        <mxCell id="tDPXz1M6_XOlwYq1AetY-151" value="" style="rhombus;whiteSpace=wrap;html=1;" vertex="1" parent="1">
          <mxGeometry x="145" y="1445" width="50" height="50" as="geometry" />
        </mxCell>
        <mxCell id="tDPXz1M6_XOlwYq1AetY-152" style="edgeStyle=orthogonalEdgeStyle;rounded=0;orthogonalLoop=1;jettySize=auto;html=1;exitX=0.5;exitY=1;exitDx=0;exitDy=0;entryX=0.5;entryY=0;entryDx=0;entryDy=0;" edge="1" parent="1" target="tDPXz1M6_XOlwYq1AetY-146">
          <mxGeometry relative="1" as="geometry">
            <mxPoint x="170" y="1325" as="sourcePoint" />
            <mxPoint x="170" y="1345" as="targetPoint" />
          </mxGeometry>
        </mxCell>
        <mxCell id="tDPXz1M6_XOlwYq1AetY-153" value="Wait 2 Seconds" style="ellipse;whiteSpace=wrap;html=1;" vertex="1" parent="1">
          <mxGeometry x="80" y="1300" width="180" height="30" as="geometry" />
        </mxCell>
        <mxCell id="tDPXz1M6_XOlwYq1AetY-160" style="edgeStyle=orthogonalEdgeStyle;rounded=0;orthogonalLoop=1;jettySize=auto;html=1;exitX=1;exitY=0.5;exitDx=0;exitDy=0;entryX=1;entryY=0.5;entryDx=0;entryDy=0;" edge="1" parent="1" source="tDPXz1M6_XOlwYq1AetY-154" target="tDPXz1M6_XOlwYq1AetY-94">
          <mxGeometry relative="1" as="geometry">
            <Array as="points">
              <mxPoint x="340" y="1545" />
              <mxPoint x="340" y="1195" />
            </Array>
          </mxGeometry>
        </mxCell>
        <mxCell id="tDPXz1M6_XOlwYq1AetY-154" value="Tell Motor to Continue Rotation" style="ellipse;whiteSpace=wrap;html=1;" vertex="1" parent="1">
          <mxGeometry x="80" y="1530" width="180" height="30" as="geometry" />
        </mxCell>
        <mxCell id="tDPXz1M6_XOlwYq1AetY-155" value="[Not Equal]" style="text;html=1;whiteSpace=wrap;strokeColor=none;fillColor=none;align=center;verticalAlign=middle;rounded=0;" vertex="1" parent="1">
          <mxGeometry x="195" y="1445" width="70" height="30" as="geometry" />
        </mxCell>
        <mxCell id="tDPXz1M6_XOlwYq1AetY-156" value="[Equal]" style="text;html=1;whiteSpace=wrap;strokeColor=none;fillColor=none;align=center;verticalAlign=middle;rounded=0;" vertex="1" parent="1">
          <mxGeometry x="160" y="1495" width="60" height="30" as="geometry" />
        </mxCell>
        <mxCell id="tDPXz1M6_XOlwYq1AetY-161" value="[Not Equal]" style="text;html=1;whiteSpace=wrap;strokeColor=none;fillColor=none;align=center;verticalAlign=middle;rounded=0;" vertex="1" parent="1">
          <mxGeometry x="-25" y="1335" width="70" height="30" as="geometry" />
        </mxCell>
        <mxCell id="tDPXz1M6_XOlwYq1AetY-171" value="" style="endArrow=classic;html=1;rounded=0;exitX=1;exitY=0.5;exitDx=0;exitDy=0;dashed=1;" edge="1" parent="1" source="tDPXz1M6_XOlwYq1AetY-154">
          <mxGeometry width="50" height="50" relative="1" as="geometry">
            <mxPoint x="340" y="1580" as="sourcePoint" />
            <mxPoint x="400" y="1250" as="targetPoint" />
            <Array as="points">
              <mxPoint x="400" y="1545" />
              <mxPoint x="400" y="1400" />
            </Array>
          </mxGeometry>
        </mxCell>
        <mxCell id="tDPXz1M6_XOlwYq1AetY-172" value="" style="endArrow=classic;html=1;rounded=0;dashed=1;" edge="1" parent="1">
          <mxGeometry width="50" height="50" relative="1" as="geometry">
            <mxPoint x="340" y="1145" as="sourcePoint" />
            <mxPoint x="180" y="760" as="targetPoint" />
            <Array as="points">
              <mxPoint x="400" y="1145" />
              <mxPoint x="400" y="760" />
            </Array>
          </mxGeometry>
        </mxCell>
        <mxCell id="odk8XBI7jBrf2oWu8FwO-67" style="edgeStyle=orthogonalEdgeStyle;rounded=0;orthogonalLoop=1;jettySize=auto;html=1;entryX=0.5;entryY=0;entryDx=0;entryDy=0;" edge="1" parent="1" source="OFKJv5_iOSedaNQaTwlu-1" target="odk8XBI7jBrf2oWu8FwO-62">
          <mxGeometry relative="1" as="geometry" />
        </mxCell>
        <mxCell id="OFKJv5_iOSedaNQaTwlu-1" value="" style="ellipse;whiteSpace=wrap;html=1;aspect=fixed;fillColor=#000000;strokeColor=#314354;fontColor=#ffffff;" vertex="1" parent="1">
          <mxGeometry x="-854.8599999999999" y="-1145" width="20" height="20" as="geometry" />
        </mxCell>
        <mxCell id="OFKJv5_iOSedaNQaTwlu-18" style="edgeStyle=orthogonalEdgeStyle;rounded=0;orthogonalLoop=1;jettySize=auto;html=1;" edge="1" parent="1" source="OFKJv5_iOSedaNQaTwlu-2" target="OFKJv5_iOSedaNQaTwlu-16">
          <mxGeometry relative="1" as="geometry" />
        </mxCell>
        <mxCell id="OFKJv5_iOSedaNQaTwlu-2" value="Calibrate Flex Sensor" style="ellipse;whiteSpace=wrap;html=1;" vertex="1" parent="1">
          <mxGeometry x="-924.8599999999999" y="-900" width="160" height="40" as="geometry" />
        </mxCell>
        <mxCell id="OFKJv5_iOSedaNQaTwlu-29" style="edgeStyle=orthogonalEdgeStyle;rounded=0;orthogonalLoop=1;jettySize=auto;html=1;entryX=0.5;entryY=0;entryDx=0;entryDy=0;" edge="1" parent="1" source="OFKJv5_iOSedaNQaTwlu-3" target="OFKJv5_iOSedaNQaTwlu-4">
          <mxGeometry relative="1" as="geometry" />
        </mxCell>
        <mxCell id="OFKJv5_iOSedaNQaTwlu-3" value="Read Rotary Inputs&amp;nbsp;" style="ellipse;whiteSpace=wrap;html=1;" vertex="1" parent="1">
          <mxGeometry x="-914.8599999999999" y="-575" width="160" height="40" as="geometry" />
        </mxCell>
        <mxCell id="OFKJv5_iOSedaNQaTwlu-30" style="edgeStyle=orthogonalEdgeStyle;rounded=0;orthogonalLoop=1;jettySize=auto;html=1;entryX=0.5;entryY=0;entryDx=0;entryDy=0;" edge="1" parent="1" source="OFKJv5_iOSedaNQaTwlu-4" target="OFKJv5_iOSedaNQaTwlu-6">
          <mxGeometry relative="1" as="geometry" />
        </mxCell>
        <mxCell id="OFKJv5_iOSedaNQaTwlu-4" value="&lt;p data-pm-slice=&quot;1 1 []&quot;&gt;Compare Flex Voltage ↔ Encoder Angle Mapping&lt;/p&gt;" style="ellipse;whiteSpace=wrap;html=1;" vertex="1" parent="1">
          <mxGeometry x="-914.8599999999999" y="-485" width="160" height="40" as="geometry" />
        </mxCell>
        <mxCell id="OFKJv5_iOSedaNQaTwlu-8" style="edgeStyle=orthogonalEdgeStyle;rounded=0;orthogonalLoop=1;jettySize=auto;html=1;" edge="1" parent="1" source="OFKJv5_iOSedaNQaTwlu-6">
          <mxGeometry relative="1" as="geometry">
            <mxPoint x="-604.8599999999999" y="-360" as="targetPoint" />
          </mxGeometry>
        </mxCell>
        <mxCell id="OFKJv5_iOSedaNQaTwlu-11" style="edgeStyle=orthogonalEdgeStyle;rounded=0;orthogonalLoop=1;jettySize=auto;html=1;" edge="1" parent="1" source="OFKJv5_iOSedaNQaTwlu-6">
          <mxGeometry relative="1" as="geometry">
            <mxPoint x="-834.8599999999999" y="-205" as="targetPoint" />
          </mxGeometry>
        </mxCell>
        <mxCell id="OFKJv5_iOSedaNQaTwlu-6" value="" style="rhombus;whiteSpace=wrap;html=1;" vertex="1" parent="1">
          <mxGeometry x="-859.8599999999999" y="-385" width="50" height="50" as="geometry" />
        </mxCell>
        <mxCell id="OFKJv5_iOSedaNQaTwlu-9" value="If mapping matches expected slope" style="text;whiteSpace=wrap;html=1;" vertex="1" parent="1">
          <mxGeometry x="-809.8599999999999" y="-385" width="220" height="40" as="geometry" />
        </mxCell>
        <mxCell id="odk8XBI7jBrf2oWu8FwO-54" style="edgeStyle=orthogonalEdgeStyle;rounded=0;orthogonalLoop=1;jettySize=auto;html=1;" edge="1" parent="1" source="OFKJv5_iOSedaNQaTwlu-10">
          <mxGeometry relative="1" as="geometry">
            <mxPoint x="-634.8599999999999" y="-790" as="targetPoint" />
            <Array as="points">
              <mxPoint x="-514.8599999999999" y="-790" />
            </Array>
          </mxGeometry>
        </mxCell>
        <mxCell id="OFKJv5_iOSedaNQaTwlu-10" value="Tell Motor to Continue Rotation" style="ellipse;whiteSpace=wrap;html=1;" vertex="1" parent="1">
          <mxGeometry x="-604.8599999999999" y="-375" width="180" height="30" as="geometry" />
        </mxCell>
        <mxCell id="OFKJv5_iOSedaNQaTwlu-12" value="If mapping mismatches expected slope" style="text;whiteSpace=wrap;html=1;" vertex="1" parent="1">
          <mxGeometry x="-1044.86" y="-305" width="220" height="40" as="geometry" />
        </mxCell>
        <mxCell id="OFKJv5_iOSedaNQaTwlu-31" style="edgeStyle=orthogonalEdgeStyle;rounded=0;orthogonalLoop=1;jettySize=auto;html=1;entryX=0;entryY=0.5;entryDx=0;entryDy=0;" edge="1" parent="1" source="OFKJv5_iOSedaNQaTwlu-13" target="OFKJv5_iOSedaNQaTwlu-16">
          <mxGeometry relative="1" as="geometry">
            <mxPoint x="-1084.86" y="-795" as="targetPoint" />
            <Array as="points">
              <mxPoint x="-1084.86" y="-185" />
              <mxPoint x="-1084.86" y="-790" />
            </Array>
          </mxGeometry>
        </mxCell>
        <mxCell id="OFKJv5_iOSedaNQaTwlu-13" value="Tell Motor to Stop&lt;span style=&quot;background-color: transparent; color: light-dark(rgb(0, 0, 0), rgb(255, 255, 255));&quot;&gt;&amp;nbsp;Rotation&lt;/span&gt;" style="ellipse;whiteSpace=wrap;html=1;" vertex="1" parent="1">
          <mxGeometry x="-914.8599999999999" y="-205" width="160" height="40" as="geometry" />
        </mxCell>
        <mxCell id="OFKJv5_iOSedaNQaTwlu-26" style="edgeStyle=orthogonalEdgeStyle;rounded=0;orthogonalLoop=1;jettySize=auto;html=1;entryX=0.5;entryY=0;entryDx=0;entryDy=0;" edge="1" parent="1" source="OFKJv5_iOSedaNQaTwlu-16" target="OFKJv5_iOSedaNQaTwlu-25">
          <mxGeometry relative="1" as="geometry" />
        </mxCell>
        <mxCell id="OFKJv5_iOSedaNQaTwlu-16" value="Check Motor Status" style="ellipse;whiteSpace=wrap;html=1;" vertex="1" parent="1">
          <mxGeometry x="-924.8599999999999" y="-810" width="160" height="40" as="geometry" />
        </mxCell>
        <mxCell id="OFKJv5_iOSedaNQaTwlu-27" value="On" style="edgeStyle=orthogonalEdgeStyle;rounded=0;orthogonalLoop=1;jettySize=auto;html=1;" edge="1" parent="1" source="OFKJv5_iOSedaNQaTwlu-25">
          <mxGeometry relative="1" as="geometry">
            <mxPoint x="-844.8599999999999" y="-575" as="targetPoint" />
          </mxGeometry>
        </mxCell>
        <mxCell id="OFKJv5_iOSedaNQaTwlu-28" value="Off" style="edgeStyle=orthogonalEdgeStyle;rounded=0;orthogonalLoop=1;jettySize=auto;html=1;entryX=1;entryY=0.5;entryDx=0;entryDy=0;exitX=1;exitY=0.5;exitDx=0;exitDy=0;" edge="1" parent="1" source="OFKJv5_iOSedaNQaTwlu-25" target="OFKJv5_iOSedaNQaTwlu-16">
          <mxGeometry relative="1" as="geometry">
            <mxPoint x="-684.8599999999999" y="-815" as="targetPoint" />
            <Array as="points">
              <mxPoint x="-634.8599999999999" y="-690" />
              <mxPoint x="-634.8599999999999" y="-790" />
            </Array>
          </mxGeometry>
        </mxCell>
        <mxCell id="OFKJv5_iOSedaNQaTwlu-25" value="" style="rhombus;whiteSpace=wrap;html=1;" vertex="1" parent="1">
          <mxGeometry x="-869.8599999999999" y="-715" width="50" height="50" as="geometry" />
        </mxCell>
        <mxCell id="5diTfeqg1cipB3IKPOqZ-3" style="edgeStyle=orthogonalEdgeStyle;rounded=0;orthogonalLoop=1;jettySize=auto;html=1;exitX=0.5;exitY=1;exitDx=0;exitDy=0;entryX=0.5;entryY=0;entryDx=0;entryDy=0;" edge="1" parent="1" source="5diTfeqg1cipB3IKPOqZ-4" target="5diTfeqg1cipB3IKPOqZ-6">
          <mxGeometry relative="1" as="geometry" />
        </mxCell>
        <mxCell id="5diTfeqg1cipB3IKPOqZ-4" value="Read Channel A / B" style="ellipse;whiteSpace=wrap;html=1;" vertex="1" parent="1">
          <mxGeometry x="1134.9699999999998" y="-340" width="160" height="30" as="geometry" />
        </mxCell>
        <mxCell id="5diTfeqg1cipB3IKPOqZ-5" style="edgeStyle=orthogonalEdgeStyle;rounded=0;orthogonalLoop=1;jettySize=auto;html=1;exitX=0.5;exitY=1;exitDx=0;exitDy=0;entryX=0.5;entryY=0;entryDx=0;entryDy=0;" edge="1" parent="1" source="5diTfeqg1cipB3IKPOqZ-6">
          <mxGeometry relative="1" as="geometry">
            <mxPoint x="1214.9699999999998" y="-235" as="targetPoint" />
          </mxGeometry>
        </mxCell>
        <mxCell id="5diTfeqg1cipB3IKPOqZ-6" value="Determine Direction (Opening / Closing)" style="ellipse;whiteSpace=wrap;html=1;" vertex="1" parent="1">
          <mxGeometry x="1098.7199999999998" y="-290" width="232.5" height="35" as="geometry" />
        </mxCell>
        <mxCell id="5diTfeqg1cipB3IKPOqZ-7" style="edgeStyle=orthogonalEdgeStyle;rounded=0;orthogonalLoop=1;jettySize=auto;html=1;exitX=0;exitY=0.5;exitDx=0;exitDy=0;entryX=0;entryY=0.5;entryDx=0;entryDy=0;" edge="1" parent="1" source="5diTfeqg1cipB3IKPOqZ-9" target="5diTfeqg1cipB3IKPOqZ-4">
          <mxGeometry relative="1" as="geometry">
            <Array as="points">
              <mxPoint x="1069.9699999999998" y="-195" />
              <mxPoint x="1069.9699999999998" y="-325" />
            </Array>
          </mxGeometry>
        </mxCell>
        <mxCell id="5diTfeqg1cipB3IKPOqZ-8" style="edgeStyle=orthogonalEdgeStyle;rounded=0;orthogonalLoop=1;jettySize=auto;html=1;exitX=0.5;exitY=1;exitDx=0;exitDy=0;" edge="1" parent="1" source="5diTfeqg1cipB3IKPOqZ-9">
          <mxGeometry relative="1" as="geometry">
            <mxPoint x="1214.9699999999998" y="-95" as="targetPoint" />
          </mxGeometry>
        </mxCell>
        <mxCell id="5diTfeqg1cipB3IKPOqZ-9" value="Is the door moving" style="rhombus;whiteSpace=wrap;html=1;" vertex="1" parent="1">
          <mxGeometry x="1174.9699999999998" y="-235" width="80" height="80" as="geometry" />
        </mxCell>
        <mxCell id="5diTfeqg1cipB3IKPOqZ-10" value="No" style="text;html=1;whiteSpace=wrap;strokeColor=none;fillColor=none;align=center;verticalAlign=middle;rounded=0;" vertex="1" parent="1">
          <mxGeometry x="1089.9699999999998" y="-225" width="60" height="30" as="geometry" />
        </mxCell>
        <mxCell id="5diTfeqg1cipB3IKPOqZ-11" value="YES" style="text;html=1;whiteSpace=wrap;strokeColor=none;fillColor=none;align=center;verticalAlign=middle;rounded=0;" vertex="1" parent="1">
          <mxGeometry x="1209.9699999999998" y="-145" width="60" height="30" as="geometry" />
        </mxCell>
        <mxCell id="5diTfeqg1cipB3IKPOqZ-12" value="" style="edgeStyle=orthogonalEdgeStyle;rounded=0;orthogonalLoop=1;jettySize=auto;html=1;" edge="1" parent="1" source="5diTfeqg1cipB3IKPOqZ-13" target="5diTfeqg1cipB3IKPOqZ-15">
          <mxGeometry relative="1" as="geometry" />
        </mxCell>
        <mxCell id="5diTfeqg1cipB3IKPOqZ-13" value="Update door count" style="ellipse;whiteSpace=wrap;html=1;" vertex="1" parent="1">
          <mxGeometry x="1154.9699999999998" y="-95" width="120" height="40" as="geometry" />
        </mxCell>
        <mxCell id="5diTfeqg1cipB3IKPOqZ-14" value="" style="edgeStyle=orthogonalEdgeStyle;rounded=0;orthogonalLoop=1;jettySize=auto;html=1;" edge="1" parent="1" source="5diTfeqg1cipB3IKPOqZ-15" target="5diTfeqg1cipB3IKPOqZ-19">
          <mxGeometry relative="1" as="geometry" />
        </mxCell>
        <mxCell id="5diTfeqg1cipB3IKPOqZ-15" value="Compute Door Angle (θ)" style="ellipse;whiteSpace=wrap;html=1;" vertex="1" parent="1">
          <mxGeometry x="1147.4699999999998" y="-25" width="135" height="40" as="geometry" />
        </mxCell>
        <mxCell id="5diTfeqg1cipB3IKPOqZ-16" style="edgeStyle=orthogonalEdgeStyle;rounded=0;orthogonalLoop=1;jettySize=auto;html=1;exitX=0.5;exitY=1;exitDx=0;exitDy=0;" edge="1" parent="1" source="5diTfeqg1cipB3IKPOqZ-15" target="5diTfeqg1cipB3IKPOqZ-15">
          <mxGeometry relative="1" as="geometry" />
        </mxCell>
        <mxCell id="5diTfeqg1cipB3IKPOqZ-17" style="edgeStyle=orthogonalEdgeStyle;rounded=0;orthogonalLoop=1;jettySize=auto;html=1;exitX=1;exitY=0.5;exitDx=0;exitDy=0;" edge="1" parent="1" source="5diTfeqg1cipB3IKPOqZ-19">
          <mxGeometry relative="1" as="geometry">
            <mxPoint x="1309.9699999999998" y="75.37037037037021" as="targetPoint" />
          </mxGeometry>
        </mxCell>
        <mxCell id="5diTfeqg1cipB3IKPOqZ-18" style="edgeStyle=orthogonalEdgeStyle;rounded=0;orthogonalLoop=1;jettySize=auto;html=1;exitX=0.5;exitY=1;exitDx=0;exitDy=0;" edge="1" parent="1" source="5diTfeqg1cipB3IKPOqZ-19">
          <mxGeometry relative="1" as="geometry">
            <mxPoint x="1215.0440740740737" y="155" as="targetPoint" />
          </mxGeometry>
        </mxCell>
        <mxCell id="5diTfeqg1cipB3IKPOqZ-19" value="θ &amp;lt;= Min Angle" style="rhombus;whiteSpace=wrap;html=1;" vertex="1" parent="1">
          <mxGeometry x="1174.9699999999998" y="35" width="80" height="80" as="geometry" />
        </mxCell>
        <mxCell id="5diTfeqg1cipB3IKPOqZ-21" value="yes" style="text;html=1;whiteSpace=wrap;strokeColor=none;fillColor=none;align=center;verticalAlign=middle;rounded=0;" vertex="1" parent="1">
          <mxGeometry x="1239.9699999999998" y="45" width="60" height="30" as="geometry" />
        </mxCell>
        <mxCell id="5diTfeqg1cipB3IKPOqZ-22" value="no" style="text;html=1;whiteSpace=wrap;strokeColor=none;fillColor=none;align=center;verticalAlign=middle;rounded=0;" vertex="1" parent="1">
          <mxGeometry x="1199.9699999999998" y="115" width="60" height="30" as="geometry" />
        </mxCell>
        <mxCell id="5diTfeqg1cipB3IKPOqZ-23" style="edgeStyle=orthogonalEdgeStyle;rounded=0;orthogonalLoop=1;jettySize=auto;html=1;" edge="1" parent="1" source="5diTfeqg1cipB3IKPOqZ-26">
          <mxGeometry relative="1" as="geometry">
            <mxPoint x="1309.9699999999998" y="195" as="targetPoint" />
          </mxGeometry>
        </mxCell>
        <mxCell id="5diTfeqg1cipB3IKPOqZ-24" value="" style="edgeStyle=orthogonalEdgeStyle;rounded=0;orthogonalLoop=1;jettySize=auto;html=1;" edge="1" parent="1" source="5diTfeqg1cipB3IKPOqZ-26">
          <mxGeometry relative="1" as="geometry">
            <mxPoint x="1139.9699999999993" y="195.06666666666706" as="targetPoint" />
          </mxGeometry>
        </mxCell>
        <mxCell id="5diTfeqg1cipB3IKPOqZ-26" value="θ &amp;gt;= Max Angle" style="rhombus;whiteSpace=wrap;html=1;" vertex="1" parent="1">
          <mxGeometry x="1174.9699999999998" y="155" width="80" height="80" as="geometry" />
        </mxCell>
        <mxCell id="5diTfeqg1cipB3IKPOqZ-28" value="yes" style="text;html=1;whiteSpace=wrap;strokeColor=none;fillColor=none;align=center;verticalAlign=middle;rounded=0;" vertex="1" parent="1">
          <mxGeometry x="1249.9699999999998" y="165" width="60" height="30" as="geometry" />
        </mxCell>
        <mxCell id="5diTfeqg1cipB3IKPOqZ-30" value="no" style="text;html=1;whiteSpace=wrap;strokeColor=none;fillColor=none;align=center;verticalAlign=middle;rounded=0;" vertex="1" parent="1">
          <mxGeometry x="1134.9699999999998" y="165" width="60" height="30" as="geometry" />
        </mxCell>
        <mxCell id="5diTfeqg1cipB3IKPOqZ-33" style="edgeStyle=orthogonalEdgeStyle;rounded=0;orthogonalLoop=1;jettySize=auto;html=1;entryX=0;entryY=0.5;entryDx=0;entryDy=0;" edge="1" parent="1" source="5diTfeqg1cipB3IKPOqZ-35" target="5diTfeqg1cipB3IKPOqZ-4">
          <mxGeometry relative="1" as="geometry">
            <Array as="points">
              <mxPoint x="1000" y="455" />
              <mxPoint x="1000" y="-325" />
            </Array>
          </mxGeometry>
        </mxCell>
        <mxCell id="5diTfeqg1cipB3IKPOqZ-35" value="Continue Running?" style="rhombus;whiteSpace=wrap;html=1;" vertex="1" parent="1">
          <mxGeometry x="1174.9599999999998" y="415" width="80" height="80" as="geometry" />
        </mxCell>
        <mxCell id="5diTfeqg1cipB3IKPOqZ-36" value="Yes" style="text;html=1;whiteSpace=wrap;strokeColor=none;fillColor=none;align=center;verticalAlign=middle;rounded=0;" vertex="1" parent="1">
          <mxGeometry x="1060.0299999999997" y="425" width="60" height="30" as="geometry" />
        </mxCell>
        <mxCell id="odk8XBI7jBrf2oWu8FwO-20" value="" style="rhombus;whiteSpace=wrap;html=1;" vertex="1" parent="1">
          <mxGeometry x="75" y="-470" width="50" height="50" as="geometry" />
        </mxCell>
        <mxCell id="odk8XBI7jBrf2oWu8FwO-21" value="Stop Rotation" style="strokeWidth=2;html=1;shape=mxgraph.flowchart.terminator;whiteSpace=wrap;" vertex="1" parent="1">
          <mxGeometry x="290" y="-460" width="280" height="30" as="geometry" />
        </mxCell>
        <mxCell id="odk8XBI7jBrf2oWu8FwO-22" value="" style="edgeStyle=orthogonalEdgeStyle;rounded=0;orthogonalLoop=1;jettySize=auto;html=1;entryX=0;entryY=0.5;entryDx=0;entryDy=0;entryPerimeter=0;dashed=1;dashPattern=8 8;jumpStyle=arc;jumpSize=14;" edge="1" parent="1" source="tDPXz1M6_XOlwYq1AetY-79" target="6iiAgWFp4yU4Dd8Ow9p1-3">
          <mxGeometry relative="1" as="geometry">
            <Array as="points">
              <mxPoint x="-50" y="530" />
              <mxPoint x="-240" y="530" />
            </Array>
            <mxPoint x="-50" y="740" as="sourcePoint" />
            <mxPoint x="240" y="445" as="targetPoint" />
          </mxGeometry>
        </mxCell>
        <mxCell id="odk8XBI7jBrf2oWu8FwO-29" style="edgeStyle=orthogonalEdgeStyle;rounded=0;orthogonalLoop=1;jettySize=auto;html=1;entryX=0.5;entryY=0;entryDx=0;entryDy=0;" edge="1" parent="1" source="6iiAgWFp4yU4Dd8Ow9p1-3" target="odk8XBI7jBrf2oWu8FwO-20">
          <mxGeometry relative="1" as="geometry" />
        </mxCell>
        <mxCell id="6iiAgWFp4yU4Dd8Ow9p1-3" value="Check for sensor input" style="strokeWidth=2;html=1;shape=mxgraph.flowchart.terminator;whiteSpace=wrap;" vertex="1" parent="1">
          <mxGeometry x="-40" y="-600" width="280" height="30" as="geometry" />
        </mxCell>
        <mxCell id="odk8XBI7jBrf2oWu8FwO-25" style="edgeStyle=orthogonalEdgeStyle;rounded=0;orthogonalLoop=1;jettySize=auto;html=1;entryX=1;entryY=0.5;entryDx=0;entryDy=0;" edge="1" parent="1" source="odk8XBI7jBrf2oWu8FwO-23" target="6iiAgWFp4yU4Dd8Ow9p1-2">
          <mxGeometry relative="1" as="geometry" />
        </mxCell>
        <mxCell id="odk8XBI7jBrf2oWu8FwO-23" value="Check for calibration" style="strokeWidth=2;html=1;shape=mxgraph.flowchart.terminator;whiteSpace=wrap;" vertex="1" parent="1">
          <mxGeometry x="650" y="-600" width="280" height="30" as="geometry" />
        </mxCell>
        <mxCell id="odk8XBI7jBrf2oWu8FwO-24" style="edgeStyle=orthogonalEdgeStyle;rounded=0;orthogonalLoop=1;jettySize=auto;html=1;entryX=0.5;entryY=1;entryDx=0;entryDy=0;entryPerimeter=0;" edge="1" parent="1" source="odk8XBI7jBrf2oWu8FwO-21" target="odk8XBI7jBrf2oWu8FwO-23">
          <mxGeometry relative="1" as="geometry" />
        </mxCell>
        <mxCell id="odk8XBI7jBrf2oWu8FwO-26" style="edgeStyle=orthogonalEdgeStyle;rounded=0;orthogonalLoop=1;jettySize=auto;html=1;entryX=0.5;entryY=0;entryDx=0;entryDy=0;entryPerimeter=0;" edge="1" parent="1" source="6iiAgWFp4yU4Dd8Ow9p1-2" target="odk8XBI7jBrf2oWu8FwO-21">
          <mxGeometry relative="1" as="geometry" />
        </mxCell>
        <mxCell id="odk8XBI7jBrf2oWu8FwO-27" value="Is calibrated" style="text;html=1;whiteSpace=wrap;strokeColor=none;fillColor=none;align=center;verticalAlign=middle;rounded=0;" vertex="1" parent="1">
          <mxGeometry x="270" y="-610" width="110" height="30" as="geometry" />
        </mxCell>
        <mxCell id="odk8XBI7jBrf2oWu8FwO-28" value="Is not calibrated" style="text;html=1;whiteSpace=wrap;strokeColor=none;fillColor=none;align=center;verticalAlign=middle;rounded=0;rotation=90;" vertex="1" parent="1">
          <mxGeometry x="390" y="-530" width="110" height="30" as="geometry" />
        </mxCell>
        <mxCell id="odk8XBI7jBrf2oWu8FwO-30" style="edgeStyle=orthogonalEdgeStyle;rounded=0;orthogonalLoop=1;jettySize=auto;html=1;entryX=0;entryY=0.5;entryDx=0;entryDy=0;entryPerimeter=0;" edge="1" parent="1" source="odk8XBI7jBrf2oWu8FwO-20" target="odk8XBI7jBrf2oWu8FwO-21">
          <mxGeometry relative="1" as="geometry" />
        </mxCell>
        <mxCell id="odk8XBI7jBrf2oWu8FwO-31" value="No input" style="text;html=1;whiteSpace=wrap;strokeColor=none;fillColor=none;align=center;verticalAlign=middle;rounded=0;" vertex="1" parent="1">
          <mxGeometry x="145" y="-470" width="110" height="30" as="geometry" />
        </mxCell>
        <mxCell id="odk8XBI7jBrf2oWu8FwO-33" value="" style="rhombus;whiteSpace=wrap;html=1;" vertex="1" parent="1">
          <mxGeometry x="75" y="-95" width="50" height="50" as="geometry" />
        </mxCell>
        <mxCell id="odk8XBI7jBrf2oWu8FwO-35" style="edgeStyle=orthogonalEdgeStyle;rounded=0;orthogonalLoop=1;jettySize=auto;html=1;entryX=0.5;entryY=1;entryDx=0;entryDy=0;entryPerimeter=0;" edge="1" parent="1" source="odk8XBI7jBrf2oWu8FwO-33" target="odk8XBI7jBrf2oWu8FwO-21">
          <mxGeometry relative="1" as="geometry">
            <mxPoint x="430" y="-329.9999999999998" as="targetPoint" />
          </mxGeometry>
        </mxCell>
        <mxCell id="odk8XBI7jBrf2oWu8FwO-36" value="Error" style="text;html=1;whiteSpace=wrap;strokeColor=none;fillColor=none;align=center;verticalAlign=middle;rounded=0;" vertex="1" parent="1">
          <mxGeometry x="220" y="-105" width="110" height="30" as="geometry" />
        </mxCell>
        <mxCell id="odk8XBI7jBrf2oWu8FwO-37" style="edgeStyle=orthogonalEdgeStyle;rounded=0;orthogonalLoop=1;jettySize=auto;html=1;entryX=0.5;entryY=0;entryDx=0;entryDy=0;" edge="1" parent="1" source="odk8XBI7jBrf2oWu8FwO-38" target="odk8XBI7jBrf2oWu8FwO-39">
          <mxGeometry relative="1" as="geometry" />
        </mxCell>
        <mxCell id="odk8XBI7jBrf2oWu8FwO-38" value="Check for signals (Flex)" style="strokeWidth=2;html=1;shape=mxgraph.flowchart.terminator;whiteSpace=wrap;" vertex="1" parent="1">
          <mxGeometry x="-40" y="25" width="280" height="30" as="geometry" />
        </mxCell>
        <mxCell id="odk8XBI7jBrf2oWu8FwO-47" style="edgeStyle=orthogonalEdgeStyle;rounded=0;orthogonalLoop=1;jettySize=auto;html=1;" edge="1" parent="1" source="odk8XBI7jBrf2oWu8FwO-39">
          <mxGeometry relative="1" as="geometry">
            <mxPoint x="430" y="-75" as="targetPoint" />
          </mxGeometry>
        </mxCell>
        <mxCell id="odk8XBI7jBrf2oWu8FwO-39" value="" style="rhombus;whiteSpace=wrap;html=1;" vertex="1" parent="1">
          <mxGeometry x="75" y="125" width="50" height="50" as="geometry" />
        </mxCell>
        <mxCell id="odk8XBI7jBrf2oWu8FwO-40" value="Error" style="text;html=1;whiteSpace=wrap;strokeColor=none;fillColor=none;align=center;verticalAlign=middle;rounded=0;" vertex="1" parent="1">
          <mxGeometry x="225" y="115" width="110" height="30" as="geometry" />
        </mxCell>
        <mxCell id="odk8XBI7jBrf2oWu8FwO-41" style="edgeStyle=orthogonalEdgeStyle;rounded=0;orthogonalLoop=1;jettySize=auto;html=1;entryX=0.5;entryY=0;entryDx=0;entryDy=0;" edge="1" parent="1" source="odk8XBI7jBrf2oWu8FwO-42" target="odk8XBI7jBrf2oWu8FwO-43">
          <mxGeometry relative="1" as="geometry" />
        </mxCell>
        <mxCell id="odk8XBI7jBrf2oWu8FwO-42" value="Check for signals (Rotary)" style="strokeWidth=2;html=1;shape=mxgraph.flowchart.terminator;whiteSpace=wrap;" vertex="1" parent="1">
          <mxGeometry x="-40" y="235" width="280" height="30" as="geometry" />
        </mxCell>
        <mxCell id="odk8XBI7jBrf2oWu8FwO-48" style="edgeStyle=orthogonalEdgeStyle;rounded=0;orthogonalLoop=1;jettySize=auto;html=1;" edge="1" parent="1" source="odk8XBI7jBrf2oWu8FwO-43">
          <mxGeometry relative="1" as="geometry">
            <mxPoint x="430" y="145" as="targetPoint" />
          </mxGeometry>
        </mxCell>
        <mxCell id="odk8XBI7jBrf2oWu8FwO-43" value="" style="rhombus;whiteSpace=wrap;html=1;" vertex="1" parent="1">
          <mxGeometry x="75" y="345" width="50" height="50" as="geometry" />
        </mxCell>
        <mxCell id="odk8XBI7jBrf2oWu8FwO-44" value="Error" style="text;html=1;whiteSpace=wrap;strokeColor=none;fillColor=none;align=center;verticalAlign=middle;rounded=0;" vertex="1" parent="1">
          <mxGeometry x="230" y="335" width="110" height="30" as="geometry" />
        </mxCell>
        <mxCell id="odk8XBI7jBrf2oWu8FwO-45" style="edgeStyle=orthogonalEdgeStyle;rounded=0;orthogonalLoop=1;jettySize=auto;html=1;entryX=0.5;entryY=0;entryDx=0;entryDy=0;entryPerimeter=0;" edge="1" parent="1" source="odk8XBI7jBrf2oWu8FwO-33" target="odk8XBI7jBrf2oWu8FwO-38">
          <mxGeometry relative="1" as="geometry" />
        </mxCell>
        <mxCell id="odk8XBI7jBrf2oWu8FwO-46" style="edgeStyle=orthogonalEdgeStyle;rounded=0;orthogonalLoop=1;jettySize=auto;html=1;entryX=0.5;entryY=0;entryDx=0;entryDy=0;entryPerimeter=0;" edge="1" parent="1" source="odk8XBI7jBrf2oWu8FwO-39" target="odk8XBI7jBrf2oWu8FwO-42">
          <mxGeometry relative="1" as="geometry" />
        </mxCell>
        <mxCell id="odk8XBI7jBrf2oWu8FwO-49" style="edgeStyle=orthogonalEdgeStyle;rounded=0;orthogonalLoop=1;jettySize=auto;html=1;entryX=0;entryY=0.5;entryDx=0;entryDy=0;entryPerimeter=0;" edge="1" parent="1" source="odk8XBI7jBrf2oWu8FwO-43" target="6iiAgWFp4yU4Dd8Ow9p1-4">
          <mxGeometry relative="1" as="geometry">
            <Array as="points">
              <mxPoint x="-140" y="370" />
              <mxPoint x="-140" y="-270" />
            </Array>
          </mxGeometry>
        </mxCell>
        <mxCell id="odk8XBI7jBrf2oWu8FwO-77" style="edgeStyle=orthogonalEdgeStyle;rounded=0;orthogonalLoop=1;jettySize=auto;html=1;entryX=1;entryY=0.5;entryDx=0;entryDy=0;" edge="1" parent="1" source="5diTfeqg1cipB3IKPOqZ-45" target="5diTfeqg1cipB3IKPOqZ-69">
          <mxGeometry relative="1" as="geometry">
            <Array as="points">
              <mxPoint x="1490" y="75" />
              <mxPoint x="1490" y="332" />
            </Array>
          </mxGeometry>
        </mxCell>
        <mxCell id="5diTfeqg1cipB3IKPOqZ-45" value="Door closed flag" style="ellipse;whiteSpace=wrap;html=1;" vertex="1" parent="1">
          <mxGeometry x="1309.9700000000003" y="45" width="110" height="60" as="geometry" />
        </mxCell>
        <mxCell id="odk8XBI7jBrf2oWu8FwO-78" style="edgeStyle=orthogonalEdgeStyle;rounded=0;orthogonalLoop=1;jettySize=auto;html=1;" edge="1" parent="1" source="5diTfeqg1cipB3IKPOqZ-47">
          <mxGeometry relative="1" as="geometry">
            <mxPoint x="1364.9700000000003" y="335" as="targetPoint" />
          </mxGeometry>
        </mxCell>
        <mxCell id="5diTfeqg1cipB3IKPOqZ-47" value="Door open flag" style="ellipse;whiteSpace=wrap;html=1;" vertex="1" parent="1">
          <mxGeometry x="1309.9700000000003" y="165" width="110" height="60" as="geometry" />
        </mxCell>
        <mxCell id="odk8XBI7jBrf2oWu8FwO-81" style="edgeStyle=orthogonalEdgeStyle;rounded=0;orthogonalLoop=1;jettySize=auto;html=1;entryX=0;entryY=0.5;entryDx=0;entryDy=0;" edge="1" parent="1" source="5diTfeqg1cipB3IKPOqZ-49" target="5diTfeqg1cipB3IKPOqZ-69">
          <mxGeometry relative="1" as="geometry">
            <Array as="points">
              <mxPoint x="1090" y="333" />
            </Array>
          </mxGeometry>
        </mxCell>
        <mxCell id="5diTfeqg1cipB3IKPOqZ-49" value="Clear flag limits" style="ellipse;whiteSpace=wrap;html=1;" vertex="1" parent="1">
          <mxGeometry x="1040.08" y="165" width="99.89" height="60" as="geometry" />
        </mxCell>
        <mxCell id="odk8XBI7jBrf2oWu8FwO-58" style="edgeStyle=orthogonalEdgeStyle;rounded=0;orthogonalLoop=1;jettySize=auto;html=1;entryX=1;entryY=0.5;entryDx=0;entryDy=0;" edge="1" parent="1" source="5diTfeqg1cipB3IKPOqZ-53" target="5diTfeqg1cipB3IKPOqZ-59">
          <mxGeometry relative="1" as="geometry">
            <Array as="points">
              <mxPoint x="1351.3000000000002" y="-607.5" />
              <mxPoint x="1351.3000000000002" y="-702.5" />
            </Array>
          </mxGeometry>
        </mxCell>
        <mxCell id="5diTfeqg1cipB3IKPOqZ-53" value="Is the button pressed" style="rhombus;whiteSpace=wrap;html=1;" vertex="1" parent="1">
          <mxGeometry x="1163.63" y="-647.5" width="100.11" height="80" as="geometry" />
        </mxCell>
        <mxCell id="5diTfeqg1cipB3IKPOqZ-55" value="Initialize Rotary Encoder Inputs" style="ellipse;whiteSpace=wrap;html=1;" vertex="1" parent="1">
          <mxGeometry x="1128.69" y="-812.5" width="165" height="50" as="geometry" />
        </mxCell>
        <mxCell id="5diTfeqg1cipB3IKPOqZ-56" style="edgeStyle=orthogonalEdgeStyle;rounded=0;orthogonalLoop=1;jettySize=auto;html=1;entryX=0.5;entryY=0;entryDx=0;entryDy=0;" edge="1" parent="1">
          <mxGeometry relative="1" as="geometry">
            <mxPoint x="1213.6900000000005" y="-812.5" as="targetPoint" />
            <mxPoint x="1213.6900000000005" y="-852.5" as="sourcePoint" />
          </mxGeometry>
        </mxCell>
        <mxCell id="5diTfeqg1cipB3IKPOqZ-57" value="" style="ellipse;whiteSpace=wrap;html=1;aspect=fixed;fillColor=#000000;strokeColor=#314354;fontColor=#ffffff;" vertex="1" parent="1">
          <mxGeometry x="1203.6800000000003" y="-865" width="20" height="20" as="geometry" />
        </mxCell>
        <mxCell id="5diTfeqg1cipB3IKPOqZ-61" style="edgeStyle=orthogonalEdgeStyle;rounded=0;orthogonalLoop=1;jettySize=auto;html=1;entryX=0.5;entryY=0;entryDx=0;entryDy=0;" edge="1" parent="1" source="5diTfeqg1cipB3IKPOqZ-59" target="5diTfeqg1cipB3IKPOqZ-53">
          <mxGeometry relative="1" as="geometry" />
        </mxCell>
        <mxCell id="5diTfeqg1cipB3IKPOqZ-59" value="Wait for startup button to be pressed" style="ellipse;whiteSpace=wrap;html=1;" vertex="1" parent="1">
          <mxGeometry x="1153.69" y="-727.5" width="120" height="50" as="geometry" />
        </mxCell>
        <mxCell id="5diTfeqg1cipB3IKPOqZ-60" style="edgeStyle=orthogonalEdgeStyle;rounded=0;orthogonalLoop=1;jettySize=auto;html=1;entryX=0.473;entryY=0.044;entryDx=0;entryDy=0;entryPerimeter=0;" edge="1" parent="1" source="5diTfeqg1cipB3IKPOqZ-55" target="5diTfeqg1cipB3IKPOqZ-59">
          <mxGeometry relative="1" as="geometry" />
        </mxCell>
        <mxCell id="5diTfeqg1cipB3IKPOqZ-62" style="edgeStyle=orthogonalEdgeStyle;rounded=0;orthogonalLoop=1;jettySize=auto;html=1;entryX=0.5;entryY=0;entryDx=0;entryDy=0;" edge="1" parent="1" source="5diTfeqg1cipB3IKPOqZ-53" target="odk8XBI7jBrf2oWu8FwO-69">
          <mxGeometry relative="1" as="geometry" />
        </mxCell>
        <mxCell id="5diTfeqg1cipB3IKPOqZ-64" value="Yes" style="text;html=1;align=center;verticalAlign=middle;resizable=0;points=[];autosize=1;strokeColor=none;fillColor=none;" vertex="1" parent="1">
          <mxGeometry x="1216.19" y="-567.5" width="40" height="30" as="geometry" />
        </mxCell>
        <mxCell id="odk8XBI7jBrf2oWu8FwO-55" value="Motor Start" style="strokeWidth=2;html=1;shape=mxgraph.flowchart.terminator;whiteSpace=wrap;" vertex="1" parent="1">
          <mxGeometry x="-40" y="-380" width="280" height="30" as="geometry" />
        </mxCell>
        <mxCell id="odk8XBI7jBrf2oWu8FwO-56" style="edgeStyle=orthogonalEdgeStyle;rounded=0;orthogonalLoop=1;jettySize=auto;html=1;entryX=0.5;entryY=0;entryDx=0;entryDy=0;entryPerimeter=0;" edge="1" parent="1" source="odk8XBI7jBrf2oWu8FwO-55" target="6iiAgWFp4yU4Dd8Ow9p1-4">
          <mxGeometry relative="1" as="geometry" />
        </mxCell>
        <mxCell id="odk8XBI7jBrf2oWu8FwO-57" style="edgeStyle=orthogonalEdgeStyle;rounded=0;orthogonalLoop=1;jettySize=auto;html=1;entryX=0.5;entryY=0;entryDx=0;entryDy=0;entryPerimeter=0;" edge="1" parent="1" source="odk8XBI7jBrf2oWu8FwO-20" target="odk8XBI7jBrf2oWu8FwO-55">
          <mxGeometry relative="1" as="geometry" />
        </mxCell>
        <mxCell id="5diTfeqg1cipB3IKPOqZ-67" value="no" style="text;html=1;align=center;verticalAlign=middle;resizable=0;points=[];autosize=1;strokeColor=none;fillColor=none;" vertex="1" parent="1">
          <mxGeometry x="1271.3000000000002" y="-639.5" width="40" height="30" as="geometry" />
        </mxCell>
        <mxCell id="odk8XBI7jBrf2oWu8FwO-61" style="edgeStyle=orthogonalEdgeStyle;rounded=0;orthogonalLoop=1;jettySize=auto;html=1;exitX=0.5;exitY=1;exitDx=0;exitDy=0;entryX=0.5;entryY=0;entryDx=0;entryDy=0;" edge="1" parent="1" source="odk8XBI7jBrf2oWu8FwO-62" target="odk8XBI7jBrf2oWu8FwO-64">
          <mxGeometry relative="1" as="geometry" />
        </mxCell>
        <mxCell id="odk8XBI7jBrf2oWu8FwO-62" value="Check for Calibration Input" style="ellipse;whiteSpace=wrap;html=1;" vertex="1" parent="1">
          <mxGeometry x="-924.8599999999999" y="-1080" width="160" height="30" as="geometry" />
        </mxCell>
        <mxCell id="odk8XBI7jBrf2oWu8FwO-63" style="edgeStyle=orthogonalEdgeStyle;rounded=0;orthogonalLoop=1;jettySize=auto;html=1;exitX=1;exitY=0.5;exitDx=0;exitDy=0;entryX=1;entryY=0.5;entryDx=0;entryDy=0;" edge="1" parent="1" source="odk8XBI7jBrf2oWu8FwO-64" target="odk8XBI7jBrf2oWu8FwO-62">
          <mxGeometry relative="1" as="geometry">
            <Array as="points">
              <mxPoint x="-739.8599999999999" y="-985" />
              <mxPoint x="-739.8599999999999" y="-1065" />
            </Array>
          </mxGeometry>
        </mxCell>
        <mxCell id="odk8XBI7jBrf2oWu8FwO-66" style="edgeStyle=orthogonalEdgeStyle;rounded=0;orthogonalLoop=1;jettySize=auto;html=1;entryX=0.5;entryY=0;entryDx=0;entryDy=0;" edge="1" parent="1" source="odk8XBI7jBrf2oWu8FwO-64" target="OFKJv5_iOSedaNQaTwlu-2">
          <mxGeometry relative="1" as="geometry" />
        </mxCell>
        <mxCell id="odk8XBI7jBrf2oWu8FwO-64" value="" style="rhombus;whiteSpace=wrap;html=1;" vertex="1" parent="1">
          <mxGeometry x="-869.8599999999999" y="-1010" width="50" height="50" as="geometry" />
        </mxCell>
        <mxCell id="odk8XBI7jBrf2oWu8FwO-65" value="[No Input]" style="text;html=1;whiteSpace=wrap;strokeColor=none;fillColor=none;align=center;verticalAlign=middle;rounded=0;" vertex="1" parent="1">
          <mxGeometry x="-819.8599999999999" y="-1010" width="60" height="30" as="geometry" />
        </mxCell>
        <mxCell id="odk8XBI7jBrf2oWu8FwO-68" value="[Input]" style="text;html=1;whiteSpace=wrap;strokeColor=none;fillColor=none;align=center;verticalAlign=middle;rounded=0;rotation=90;" vertex="1" parent="1">
          <mxGeometry x="-859.8599999999999" y="-945" width="60" height="30" as="geometry" />
        </mxCell>
        <mxCell id="odk8XBI7jBrf2oWu8FwO-71" style="edgeStyle=orthogonalEdgeStyle;rounded=0;orthogonalLoop=1;jettySize=auto;html=1;" edge="1" parent="1" source="odk8XBI7jBrf2oWu8FwO-69" target="5diTfeqg1cipB3IKPOqZ-4">
          <mxGeometry relative="1" as="geometry">
            <Array as="points">
              <mxPoint x="1214.08" y="-365" />
              <mxPoint x="1214.08" y="-365" />
            </Array>
          </mxGeometry>
        </mxCell>
        <mxCell id="odk8XBI7jBrf2oWu8FwO-83" style="edgeStyle=orthogonalEdgeStyle;rounded=0;orthogonalLoop=1;jettySize=auto;html=1;entryX=1;entryY=0.5;entryDx=0;entryDy=0;dashed=1;dashPattern=8 8;" edge="1" parent="1" source="odk8XBI7jBrf2oWu8FwO-69" target="odk8XBI7jBrf2oWu8FwO-62">
          <mxGeometry relative="1" as="geometry">
            <mxPoint x="-289.4285365513393" y="-900" as="targetPoint" />
            <Array as="points">
              <mxPoint x="1030" y="-467" />
              <mxPoint x="1030" y="-1065" />
            </Array>
          </mxGeometry>
        </mxCell>
        <mxCell id="odk8XBI7jBrf2oWu8FwO-84" style="edgeStyle=orthogonalEdgeStyle;rounded=0;orthogonalLoop=1;jettySize=auto;html=1;entryX=1;entryY=0.5;entryDx=0;entryDy=0;dashed=1;dashPattern=8 8;" edge="1" parent="1" source="odk8XBI7jBrf2oWu8FwO-69" target="tDPXz1M6_XOlwYq1AetY-6">
          <mxGeometry relative="1" as="geometry">
            <mxPoint x="-440" y="540" as="targetPoint" />
            <Array as="points">
              <mxPoint x="880" y="-467" />
              <mxPoint x="880" y="555" />
            </Array>
          </mxGeometry>
        </mxCell>
        <mxCell id="odk8XBI7jBrf2oWu8FwO-69" value="Initialize Calibration" style="ellipse;whiteSpace=wrap;html=1;" vertex="1" parent="1">
          <mxGeometry x="1133.69" y="-482.5" width="160" height="30" as="geometry" />
        </mxCell>
        <mxCell id="odk8XBI7jBrf2oWu8FwO-72" style="edgeStyle=orthogonalEdgeStyle;rounded=0;orthogonalLoop=1;jettySize=auto;html=1;entryX=0;entryY=0.5;entryDx=0;entryDy=0;entryPerimeter=0;dashed=1;dashPattern=8 8;jumpStyle=arc;jumpSize=14;" edge="1" parent="1" source="tDPXz1M6_XOlwYq1AetY-124" target="6iiAgWFp4yU4Dd8Ow9p1-5">
          <mxGeometry relative="1" as="geometry">
            <Array as="points">
              <mxPoint x="180" y="480" />
              <mxPoint x="-180" y="480" />
              <mxPoint x="-180" y="-180" />
            </Array>
          </mxGeometry>
        </mxCell>
        <mxCell id="odk8XBI7jBrf2oWu8FwO-73" style="edgeStyle=orthogonalEdgeStyle;rounded=0;orthogonalLoop=1;jettySize=auto;html=1;entryX=0;entryY=0.5;entryDx=0;entryDy=0;entryPerimeter=0;dashed=1;dashPattern=8 8;jumpStyle=arc;jumpSize=14;" edge="1" parent="1" source="OFKJv5_iOSedaNQaTwlu-10" target="odk8XBI7jBrf2oWu8FwO-38">
          <mxGeometry relative="1" as="geometry">
            <Array as="points">
              <mxPoint x="-520" y="40" />
            </Array>
          </mxGeometry>
        </mxCell>
        <mxCell id="odk8XBI7jBrf2oWu8FwO-74" style="edgeStyle=orthogonalEdgeStyle;rounded=0;orthogonalLoop=1;jettySize=auto;html=1;entryX=1;entryY=0.5;entryDx=0;entryDy=0;entryPerimeter=0;dashed=1;dashPattern=8 8;" edge="1" parent="1" source="odk8XBI7jBrf2oWu8FwO-69" target="odk8XBI7jBrf2oWu8FwO-23">
          <mxGeometry relative="1" as="geometry" />
        </mxCell>
        <mxCell id="odk8XBI7jBrf2oWu8FwO-80" style="edgeStyle=orthogonalEdgeStyle;rounded=0;orthogonalLoop=1;jettySize=auto;html=1;exitX=0.5;exitY=1;exitDx=0;exitDy=0;entryX=0.5;entryY=0;entryDx=0;entryDy=0;" edge="1" parent="1" source="5diTfeqg1cipB3IKPOqZ-69" target="5diTfeqg1cipB3IKPOqZ-35">
          <mxGeometry relative="1" as="geometry" />
        </mxCell>
        <mxCell id="odk8XBI7jBrf2oWu8FwO-82" style="edgeStyle=orthogonalEdgeStyle;rounded=0;orthogonalLoop=1;jettySize=auto;html=1;entryX=1;entryY=0.5;entryDx=0;entryDy=0;entryPerimeter=0;dashed=1;dashPattern=8 8;jumpStyle=arc;jumpSize=14;" edge="1" parent="1" source="5diTfeqg1cipB3IKPOqZ-69" target="odk8XBI7jBrf2oWu8FwO-42">
          <mxGeometry relative="1" as="geometry">
            <mxPoint x="800" y="350" as="targetPoint" />
            <Array as="points">
              <mxPoint x="1010" y="250" />
              <mxPoint x="1010" y="250" />
            </Array>
          </mxGeometry>
        </mxCell>
        <mxCell id="5diTfeqg1cipB3IKPOqZ-69" value="Send Door status flag and θ to the microcontroller" style="ellipse;whiteSpace=wrap;html=1;" vertex="1" parent="1">
          <mxGeometry x="1147.47" y="295" width="134.97" height="75" as="geometry" />
        </mxCell>
        <mxCell id="tDPXz1M6_XOlwYq1AetY-177" value="&lt;font style=&quot;font-size: 21px;&quot;&gt;&lt;b&gt;IR Emitter/Detector Subsystem&lt;/b&gt;&lt;/font&gt;" style="text;html=1;whiteSpace=wrap;strokeColor=default;fillColor=none;align=center;verticalAlign=middle;rounded=0;" vertex="1" parent="1">
          <mxGeometry x="-770" y="150" width="240" height="80" as="geometry" />
        </mxCell>
        <mxCell id="tDPXz1M6_XOlwYq1AetY-179" value="&lt;span style=&quot;font-size: 21px;&quot;&gt;&lt;b&gt;Resistive Flex Sensor Subsystem&lt;/b&gt;&lt;/span&gt;" style="text;html=1;whiteSpace=wrap;strokeColor=default;fillColor=none;align=center;verticalAlign=middle;rounded=0;" vertex="1" parent="1">
          <mxGeometry x="-964.86" y="-1285" width="240" height="80" as="geometry" />
        </mxCell>
        <mxCell id="tDPXz1M6_XOlwYq1AetY-181" value="&lt;font style=&quot;font-size: 21px;&quot;&gt;&lt;b&gt;Rotary Encoder Subsystem&lt;/b&gt;&lt;/font&gt;" style="text;html=1;whiteSpace=wrap;strokeColor=default;fillColor=none;align=center;verticalAlign=middle;rounded=0;" vertex="1" parent="1">
          <mxGeometry x="1116.19" y="-1000" width="240" height="80" as="geometry" />
        </mxCell>
        <mxCell id="tDPXz1M6_XOlwYq1AetY-183" value="&lt;font style=&quot;font-size: 21px;&quot;&gt;&lt;b&gt;Motor Subsystem&lt;/b&gt;&lt;/font&gt;" style="text;html=1;whiteSpace=wrap;strokeColor=default;fillColor=none;align=center;verticalAlign=middle;rounded=0;" vertex="1" parent="1">
          <mxGeometry x="140" y="-775" width="240" height="80" as="geometry" />
        </mxCell>
      </root>
    </mxGraphModel>
  </diagram>
</mxfile>
